# Blender 3.5.0
# www.blender.org
mtllib door_cabana.mtl
o door_cabana
v 8.636355 227.272537 -9.750025
v 8.636355 124.999893 -9.750010
v 46.988590 114.812195 -9.750008
v 46.988590 86.647644 -9.750004
v 58.494263 100.526093 -16.949203
v 61.370674 83.323288 -17.127028
v 69.999931 97.330070 -18.310482
v 69.999931 84.053749 -17.974215
v 78.629181 83.323288 -17.127028
v 69.999931 73.863579 -9.750002
v 93.011269 86.647644 -9.750004
v 131.363510 22.727257 -9.749994
v 131.363510 124.999893 -9.750010
v 103.520401 118.486572 7.317950
v 99.388756 120.156441 6.394246
v 102.357452 117.985748 12.029298
v 97.944916 116.663506 12.243568
v 104.149490 111.185448 12.947144
v 99.982246 108.688751 14.985399
v 107.482025 106.685410 12.649539
v 104.307281 99.799194 13.013621
v 108.386482 98.670036 7.483266
v 115.726646 108.116737 9.395628
v 108.386482 98.670036 7.483266
v 112.734352 108.945038 15.202171
v 104.307281 99.799194 13.013621
v 112.306877 109.063354 16.031681
v 99.982246 108.688751 14.985399
v 108.681015 114.665909 18.315947
v 106.973061 119.753716 16.017355
v 116.543015 113.603828 7.353714
v 115.726646 108.116737 9.395628
v 115.568077 111.245239 11.303433
v 112.734352 108.945038 15.202171
v 112.813622 112.007713 15.037772
v 112.306877 109.063354 16.031681
v 108.681015 114.665909 18.315947
v 117.888847 126.996193 9.620850
v 125.838058 127.841713 9.736568
v 118.851318 126.004646 11.861849
v 121.566658 123.290260 11.209439
v 121.728905 119.488411 14.481630
v 127.993698 120.089088 9.788525
v 133.016525 120.509529 13.624932
v 93.011269 114.812195 -9.750008
v 131.363510 227.272537 -9.750025
v 69.999931 114.812195 -9.750008
v 69.999924 227.272537 -9.750025
v 103.520401 118.486572 7.317950
v 102.357452 117.985748 12.029298
v 88.444313 110.500267 6.713841
v 104.149490 111.185448 12.947144
v 90.622681 103.675621 9.645514
v 93.479439 97.780731 7.537209
v 8.636355 22.727257 -9.749994
v 117.290970 143.504776 -9.628154
v 115.060478 134.265747 -9.615336
v 118.590134 138.263672 -11.343204
v 117.779106 132.468994 -10.728388
v 121.754944 135.811020 -11.495220
v 125.268478 132.256317 -10.241284
v 117.888847 126.996193 9.620850
v 118.851318 126.004646 11.861849
v 114.133469 123.871521 14.024319
v 121.728905 119.488411 14.481630
v 114.159790 120.750404 16.805716
v 114.312187 116.652420 19.095842
v 114.133469 123.871521 14.024319
v 108.517494 119.542526 14.517801
v 114.312187 116.652420 19.095842
v 109.893166 115.444542 16.369205
v 112.813622 112.007713 15.037772
v 122.568932 116.377525 19.656729
v 130.290756 118.992958 18.493540
v 131.449966 118.619629 16.351580
v 126.234077 125.966499 7.035282
v 120.809624 121.157394 8.958546
v 127.663338 125.693665 9.106441
v 131.363510 22.727257 9.749987
v 144.999847 -0.000002 9.749990
v 69.999931 0.000002 9.749990
v 144.999847 -0.000006 -9.749990
v 69.999931 -0.000002 -9.749990
v 97.944916 116.663506 12.243568
v 99.388756 120.156441 6.394246
v 108.183479 122.681999 9.589049
v -4.999995 249.999786 -9.750029
v 8.636355 227.272537 -9.750025
v 69.999931 249.999786 -9.750029
v 69.999924 227.272537 -9.750025
v 131.363510 227.272537 -9.750025
v 144.999847 -0.000002 9.749990
v 131.363510 22.727257 9.749987
v 144.999863 124.999893 9.749971
v 131.363510 124.999893 9.749971
v 131.363510 227.272537 9.749956
v -4.999995 0.000002 9.749990
v 8.636355 22.727257 9.749987
v 69.999924 22.727257 9.749987
v -4.999995 -0.000002 -9.749990
v 8.636355 22.727257 -9.749994
v -4.999995 124.999893 -9.750010
v 8.636355 124.999893 -9.750010
v 8.636355 227.272537 -9.750025
v 81.505600 100.526093 -16.949203
v 131.363510 124.999893 9.749971
v 131.363510 22.727257 9.749987
v 69.999931 124.999893 9.749971
v 69.999924 22.727257 9.749987
v 8.636355 22.727257 9.749987
v 121.988014 129.162415 -11.865623
v 125.745926 126.520294 -8.892557
v 129.118530 144.046082 -11.326212
v 122.661369 141.885025 -7.451003
v 118.590134 138.263672 -11.343204
v 126.433258 145.251648 -10.683868
v 125.268478 132.256317 -10.241284
v 8.636355 124.999893 9.749971
v 8.636355 227.272537 9.749956
v 69.999924 227.272537 9.749956
v 107.565788 107.280022 -13.141243
v 117.730644 121.190292 -12.823608
v 97.178177 117.478981 -9.085917
v 112.710114 125.134499 -11.467085
v 108.692787 124.997520 -9.604425
v 144.999847 -0.000006 -9.749990
v 131.363510 22.727257 -9.749994
v 69.999931 -0.000002 -9.749990
v 69.999924 22.727257 -9.749994
v 8.636355 22.727257 -9.749994
v 106.099930 124.866966 -9.780123
v 108.692787 124.997520 -9.604425
v 111.733360 124.235779 -14.063587
v 112.710114 125.134499 -11.467085
v 117.730644 121.190292 -12.823608
v 117.966530 119.338905 -15.747758
v 122.213203 118.038696 -9.277240
v 122.815964 109.466209 -9.394259
v 133.016525 120.509529 13.624932
v 127.993698 120.089088 9.788525
v 127.658836 115.101929 14.849309
v 116.543015 113.603828 7.353714
v 115.568077 111.245239 11.303433
v 122.568932 116.377525 19.656729
v 130.290756 118.992958 18.493540
v 131.449966 118.619629 16.351580
v 69.999931 0.000002 9.749990
v 69.999931 -0.000002 -9.749990
v -4.999995 0.000002 9.749990
v -4.999995 -0.000002 -9.749990
v -4.999995 249.999786 9.749952
v 69.999931 249.999786 9.749952
v 8.636355 227.272537 9.749956
v 69.999924 227.272537 9.749956
v 69.999931 249.999786 -9.750029
v 69.999931 249.999786 9.749952
v -4.999995 249.999786 9.749952
v 131.363510 227.272537 9.749956
v 131.363510 124.999893 -9.750010
v 144.999863 124.999893 -9.750010
v 131.363510 227.272537 -9.750025
v 144.999863 249.999786 -9.750029
v 8.636355 124.999893 9.749971
v -4.999995 124.999893 9.749971
v 8.636355 227.272537 9.749956
v -4.999995 249.999786 9.749952
v -4.999995 249.999786 9.749952
v -4.999995 124.999893 9.749971
v -4.999995 124.999893 -9.750010
v 144.999863 249.999786 -9.750029
v 144.999863 124.999893 -9.750010
v 144.999863 249.999786 9.749952
v 144.999863 124.999893 9.749971
v 69.999924 22.727257 -9.749994
v 144.999863 249.999786 9.749952
v 69.999931 249.999786 -9.750029
v 112.813622 112.007713 15.037772
v 131.363510 227.272537 9.749956
v 122.213203 118.038696 -9.277240
v 112.258408 104.333405 -9.575310
v 127.209801 123.414536 -9.602329
v 122.198494 128.244156 -14.521599
v 122.815964 109.466209 -9.394259
v 117.966530 119.338905 -15.747758
v 129.118530 144.046082 -11.326212
v 128.806625 143.829300 -8.307298
v 126.433258 145.251648 -10.683868
v 122.661369 141.885025 -7.451003
v 112.258408 104.333405 -9.575310
v 107.565788 107.280022 -13.141243
v 105.389435 103.094788 -8.994190
v 97.232590 107.545998 -9.754517
v 117.290970 143.504776 -9.628154
v 119.679832 142.919907 -9.665148
v 113.152710 131.270264 -9.909825
v 116.627686 132.186005 -11.919100
v 115.060478 134.265747 -9.615336
v 117.779106 132.468994 -10.728388
v 122.198494 128.244156 -14.521599
v 121.988014 129.162415 -11.865623
v 125.745926 126.520294 -8.892557
v 127.209801 123.414536 -9.602329
v 116.627686 132.186005 -11.919100
v 111.733360 124.235779 -14.063587
v 106.099930 124.866966 -9.780123
v 113.152710 131.270264 -9.909825
v 110.767632 105.775932 8.195102
v 107.482025 106.685410 12.649539
v 117.888847 126.996193 9.620850
v 109.492424 121.901123 9.503226
v 109.492424 121.901123 9.503226
v 108.517494 119.542526 14.517801
v 108.183479 122.681999 9.589049
v 106.973061 119.753716 16.017355
v 144.999847 -0.000002 9.749990
v 144.999863 124.999893 9.749971
v 144.999847 -0.000006 -9.749990
v 144.999863 124.999893 -9.750010
v -4.999995 124.999893 9.749971
v -4.999995 0.000002 9.749990
v -4.999995 124.999893 -9.750010
v -4.999995 -0.000002 -9.749990
v -4.999995 0.000002 9.749990
v 8.636355 22.727257 9.749987
v 144.999847 -0.000006 -9.749990
v 131.363510 22.727257 -9.749994
v 109.893166 115.444542 16.369205
v 128.806625 143.829300 -8.307298
v 129.118530 144.046082 -11.326212
v 125.745926 126.520294 -8.892557
v 129.118530 144.046082 -11.326212
v -4.999995 249.999786 -9.750029
v 144.999863 249.999786 -9.750029
v 122.568932 116.377525 19.656729
v 144.999863 249.999786 9.749952
v 97.178177 117.478981 -9.085917
v 110.767632 105.775932 8.195102
v -4.999995 -0.000002 -9.749990
vn -0.0000 -0.0000 -1.0000
vn -0.5304 -0.0000 -0.8477
vn -0.4679 -0.0691 -0.8811
vn -0.1202 -0.0098 -0.9927
vn -0.0956 -0.0252 -0.9951
vn 0.0956 -0.0252 -0.9951
vn 0.0232 -0.6279 -0.7780
vn 0.4250 -0.7650 -0.4838
vn -0.3336 -0.9253 -0.1807
vn 0.2353 -0.8589 -0.4548
vn -0.0075 -0.1357 -0.9907
vn -0.2218 -0.3672 -0.9033
vn -0.3377 -0.1891 -0.9221
vn -0.2776 0.0773 -0.9576
vn -0.7349 0.3069 -0.6047
vn 0.6682 -0.6065 0.4309
vn 0.5522 -0.6374 0.5374
vn 0.6180 -0.6685 0.4138
vn -0.0743 -0.2503 0.9653
vn -0.0646 -0.4123 0.9087
vn -0.4785 0.2231 0.8493
vn 0.9775 -0.0715 0.1986
vn 0.8473 -0.2446 0.4715
vn 0.8058 0.0109 0.5921
vn 0.8890 0.0016 0.4579
vn 0.6670 0.1327 0.7332
vn -0.1014 0.8929 0.4386
vn 0.2790 0.0486 0.9591
vn 0.6478 0.5126 0.5635
vn 0.4445 0.5952 0.6695
vn -0.0895 0.9960 0.0080
vn -0.4673 0.8838 -0.0214
vn -0.3698 0.0279 0.9287
vn -0.3656 0.2664 0.8918
vn -0.0336 -0.3510 0.9358
vn -0.4250 -0.7650 -0.4838
vn -0.0232 -0.6279 -0.7780
vn -0.5526 0.1323 -0.8229
vn -0.4016 -0.0409 -0.9149
vn -0.1162 -0.0887 -0.9893
vn 0.0542 -0.2841 -0.9573
vn -0.1809 0.8683 0.4619
vn 0.2017 0.4407 0.8747
vn 0.3219 0.6314 0.7055
vn 0.3298 0.4699 0.8188
vn -0.4069 0.6058 0.6837
vn -0.4168 0.4316 0.8000
vn -0.5519 0.1823 0.8137
vn -0.3163 -0.5642 0.7626
vn -0.1999 0.8251 0.5284
vn -0.0672 0.9627 0.2623
vn 0.8765 -0.0337 0.4802
vn 0.5012 -0.7429 -0.4438
vn 0.4626 -0.7160 0.5229
vn 0.3261 -0.0002 0.9453
vn -0.0000 -0.0000 1.0000
vn -0.0000 -1.0000 -0.0000
vn -0.4337 0.1919 0.8804
vn -0.4375 0.8155 0.3790
vn -0.3687 0.8702 0.3270
vn -0.0000 0.4500 -0.8930
vn -0.0159 0.4397 -0.8980
vn 0.1202 -0.0098 -0.9927
vn 0.0708 0.4038 -0.9121
vn 0.5475 -0.1481 -0.8236
vn 0.3236 -0.1910 -0.9267
vn 0.0159 0.4397 -0.8980
vn -0.6653 0.7466 0.0013
vn 0.0134 0.0790 -0.9968
vn 0.2830 -0.0580 -0.9574
vn -0.2064 0.1728 -0.9631
vn -0.1938 0.0893 -0.9770
vn -0.3739 0.5197 -0.7682
vn 0.0363 -0.9807 0.1923
vn 0.1574 -0.9500 0.2696
vn -0.4771 -0.7594 0.4423
vn -0.7054 -0.6232 0.3377
vn -0.8402 -0.0664 0.5381
vn 0.5031 -0.6320 -0.5895
vn 0.4879 -0.6377 -0.5961
vn 0.3832 -0.8316 -0.4020
vn 0.3402 -0.7551 0.5605
vn 0.5256 -0.7432 0.4140
vn 0.6967 -0.7113 -0.0927
vn -0.0000 1.0000 -0.0000
vn 0.5304 -0.0000 -0.8477
vn 0.4679 -0.0691 -0.8811
vn -1.0000 -0.0000 -0.0000
vn 1.0000 -0.0000 -0.0000
vn 0.1964 -0.9222 0.3332
vn 0.1891 -0.8809 0.4339
vn 0.4481 -0.3073 -0.8395
vn 0.4462 -0.3068 -0.8407
vn 0.5843 -0.1958 -0.7875
vn 0.6174 -0.1882 -0.7638
vn 0.4287 0.8969 0.1087
vn -0.1575 0.7701 0.6182
vn 0.0716 -0.7206 -0.6897
vn -0.2615 -0.6073 -0.7502
vn 0.0649 0.3248 -0.9435
vn 0.6203 0.1334 -0.7729
vn -0.5350 0.4132 -0.7369
vn 0.3235 0.8013 -0.5033
vn 0.3277 0.7976 -0.5065
vn 0.5620 0.7945 -0.2301
vn 0.6634 0.7219 -0.1970
vn 0.8066 0.4639 -0.3663
vn -0.2581 0.2511 -0.9329
vn -0.0377 0.2818 -0.9587
vn -0.4900 0.4952 -0.7174
vn -0.5203 0.5601 -0.6447
vn 0.3639 -0.8228 0.4364
vn -0.2093 -0.2181 0.9532
vn -0.5137 0.8429 0.1600
vn -0.5765 0.7768 0.2533
vn 0.4795 0.7545 0.4481
vn 0.5211 0.7354 0.4331
vn 0.6427 0.4840 0.5938
vn 0.9803 -0.1763 0.0886
vn -0.2376 -0.0118 -0.9713
vn 0.1832 0.6821 -0.7079
vn -0.0065 0.8566 0.5160
vn -0.0732 -0.6427 0.7626
vn -0.3094 0.0622 -0.9489
vn 0.7121 0.3752 0.5934
vt 0.937500 0.925781
vt 0.937500 0.476562
vt 0.796875 0.425781
vt 0.796875 0.308594
vt 0.753906 0.378906
vt 0.742188 0.277344
vt 0.710938 0.367188
vt 0.710938 0.269531
vt 0.675781 0.277344
vt 0.710938 0.250000
vt 0.613281 0.285156
vt 0.464844 0.027344
vt 0.464844 0.449219
vt 0.230469 0.457031
vt 0.230469 0.457031
vt 0.234375 0.457031
vt 0.234375 0.457031
vt 0.234375 0.453125
vt 0.234375 0.453125
vt 0.234375 0.453125
vt 0.234375 0.449219
vt 0.230469 0.449219
vt 0.375000 0.371094
vt 0.367188 0.339844
vt 0.363281 0.371094
vt 0.335938 0.343750
vt 0.363281 0.371094
vt 0.332031 0.378906
vt 0.351562 0.390625
vt 0.351562 0.414062
vt 0.378906 0.386719
vt 0.367188 0.359375
vt 0.375000 0.371094
vt 0.363281 0.367188
vt 0.371094 0.371094
vt 0.363281 0.367188
vt 0.359375 0.386719
vt 0.371094 0.457031
vt 0.394531 0.457031
vt 0.394531 0.457031
vt 0.398438 0.445312
vt 0.410156 0.441406
vt 0.417969 0.429688
vt 0.429688 0.437500
vt 0.617188 0.414062
vt 0.464844 0.925781
vt 0.710938 0.425781
vt 0.710938 0.925781
vt 0.328125 0.414062
vt 0.328125 0.394531
vt 0.289062 0.414062
vt 0.335938 0.367188
vt 0.296875 0.375000
vt 0.320312 0.347656
vt 0.937500 0.027344
vt 0.382812 0.453125
vt 0.371094 0.437500
vt 0.386719 0.437500
vt 0.367188 0.421875
vt 0.386719 0.421875
vt 0.386719 0.410156
vt 0.378906 0.445312
vt 0.390625 0.445312
vt 0.382812 0.429688
vt 0.406250 0.449219
vt 0.386719 0.421875
vt 0.390625 0.394531
vt 0.386719 0.437500
vt 0.367188 0.421875
vt 0.386719 0.410156
vt 0.363281 0.402344
vt 0.371094 0.386719
vt 0.414062 0.414062
vt 0.425781 0.437500
vt 0.429688 0.421875
vt 0.390625 0.449219
vt 0.390625 0.449219
vt 0.398438 0.445312
vt 0.992188 0.671875
vt 0.929688 0.671875
vt 0.929688 0.011719
vt 0.992188 0.671875
vt 0.992188 0.011719
vt 0.335938 0.410156
vt 0.343750 0.433594
vt 0.367188 0.433594
vt 0.929688 0.671875
vt 0.992188 0.671875
vt 0.929688 0.011719
vt 0.992188 0.011719
vt 0.992188 0.671875
vt 1.003906 0.730469
vt 0.929688 0.671875
vt 1.003906 0.011719
vt 0.929688 0.011719
vt 0.929688 0.671875
vt 0.929688 0.671875
vt 0.992188 0.671875
vt 0.992188 0.011719
vt 0.996094 0.730469
vt 0.929688 0.671875
vt 0.996094 0.011719
vt 0.929688 0.011719
vt 0.929688 0.671875
vt 0.664062 0.378906
vt 0.453125 0.460938
vt 0.453125 0.011719
vt 0.226562 0.457031
vt 0.226562 0.007812
vt 0.003906 0.003906
vt 0.363281 0.402344
vt 0.371094 0.386719
vt 0.398438 0.394531
vt 0.398438 0.449219
vt 0.382812 0.429688
vt 0.406250 0.449219
vt 0.390625 0.394531
vt 0.003906 0.453125
vt 0.003906 0.902344
vt 0.226562 0.906250
vt 0.609375 0.425781
vt 0.566406 0.417969
vt 0.617188 0.464844
vt 0.566406 0.445312
vt 0.582031 0.460938
vt 0.929688 0.671875
vt 0.992188 0.671875
vt 0.929688 0.011719
vt 0.992188 0.011719
vt 0.992188 0.671875
vt 0.230469 0.457031
vt 0.230469 0.457031
vt 0.234375 0.457031
vt 0.234375 0.457031
vt 0.234375 0.453125
vt 0.234375 0.453125
vt 0.234375 0.453125
vt 0.234375 0.449219
vt 0.410156 0.410156
vt 0.402344 0.398438
vt 0.394531 0.406250
vt 0.371094 0.382812
vt 0.363281 0.390625
vt 0.382812 0.414062
vt 0.398438 0.417969
vt 0.402344 0.414062
vt 0.929688 0.671875
vt 0.992188 0.671875
vt 0.929688 0.011719
vt 0.992188 0.011719
vt 0.929688 0.671875
vt 0.929688 0.011719
vt 0.992188 0.671875
vt 0.992188 0.011719
vt 0.992188 0.671875
vt 0.992188 0.011719
vt 0.929688 0.011719
vt 0.453125 0.906250
vt 0.929688 0.011719
vt 0.996094 0.011719
vt 0.929688 0.671875
vt 0.996094 0.730469
vt 0.929688 0.011719
vt 1.003906 0.011719
vt 0.929688 0.671875
vt 1.003906 0.730469
vt 0.992188 0.671875
vt 0.992188 0.011719
vt 0.929688 0.011719
vt 0.992188 0.671875
vt 0.992188 0.011719
vt 0.929688 0.671875
vt 0.929688 0.011719
vt 0.710938 0.027344
vt 0.992188 0.011719
vt 0.929688 0.671875
vt 0.359375 0.394531
vt 0.992188 0.671875
vt 0.570312 0.386719
vt 0.589844 0.382812
vt 0.562500 0.363281
vt 0.558594 0.406250
vt 0.539062 0.359375
vt 0.531250 0.398438
vt 0.871094 0.632812
vt 0.808594 0.632812
vt 0.871094 0.644531
vt 0.851562 0.664062
vt 0.621094 0.410156
vt 0.601562 0.414062
vt 0.621094 0.375000
vt 0.593750 0.386719
vt 0.378906 0.445312
vt 0.390625 0.445312
vt 0.367188 0.429688
vt 0.363281 0.410156
vt 0.371094 0.429688
vt 0.371094 0.414062
vt 0.367188 0.386719
vt 0.378906 0.390625
vt 0.378906 0.371094
vt 0.371094 0.367188
vt 0.562500 0.433594
vt 0.531250 0.429688
vt 0.539062 0.457031
vt 0.566406 0.457031
vt 0.347656 0.351562
vt 0.343750 0.355469
vt 0.382812 0.453125
vt 0.371094 0.437500
vt 0.363281 0.429688
vt 0.367188 0.414062
vt 0.359375 0.429688
vt 0.355469 0.410156
vt 0.929688 0.011719
vt 0.929688 0.671875
vt 0.992188 0.011719
vt 0.992188 0.671875
vt 0.992188 0.671875
vt 0.992188 0.011719
vt 0.929688 0.671875
vt 0.929688 0.011719
vt 1.003906 0.730469
vt 0.929688 0.671875
vt 0.996094 0.730469
vt 0.929688 0.671875
vt 0.371094 0.390625
vt 0.394531 0.406250
vt 0.382812 0.414062
vt 0.359375 0.394531
vt 0.414062 0.414062
vt 0.996094 0.730469
vt 0.929688 0.671875
vt 0.398438 0.394531
vt 1.003906 0.730469
vt 0.585938 0.402344
vt 0.230469 0.453125
vt 0.929688 0.671875
s 0
usemtl Doo_e_v
f 3/3/1 2/2/1 1/1/1
f 3/3/1 4/4/1 2/2/1
f 5/5/2 4/4/2 3/3/2
f 5/5/3 6/6/3 4/4/3
f 7/7/4 6/6/4 5/5/4
f 7/7/5 8/8/5 6/6/5
f 9/9/6 8/8/6 7/7/6
f 9/9/7 10/10/7 8/8/7
f 11/11/8 10/10/8 9/9/8
f 11/11/1 12/12/1 10/10/1
f 13/13/1 12/12/1 11/11/1
f 16/16/9 15/15/9 14/14/9
f 16/16/10 17/17/10 15/15/10
f 18/18/11 17/17/11 16/16/11
f 18/18/12 19/19/12 17/17/12
f 20/20/13 19/19/13 18/18/13
f 20/20/14 21/21/14 19/19/14
f 22/22/15 21/21/15 20/20/15
f 25/25/16 24/24/16 23/23/16
f 25/25/17 26/26/17 24/24/17
f 27/27/18 26/26/18 25/25/18
f 27/27/19 28/28/19 26/26/19
f 29/29/20 28/28/20 27/27/20
f 29/29/21 30/30/21 28/28/21
f 33/33/22 32/32/22 31/31/22
f 33/33/23 34/34/23 32/32/23
f 35/35/24 34/34/24 33/33/24
f 35/35/25 36/36/25 34/34/25
f 37/37/26 36/36/26 35/35/26
f 40/40/27 39/39/27 38/38/27
f 40/40/28 41/41/28 39/39/28
f 42/42/29 41/41/29 40/40/29
f 42/42/30 43/43/30 41/41/30
f 44/44/31 43/43/31 42/42/31
f 45/45/1 13/13/1 11/11/1
f 45/45/1 46/46/1 13/13/1
f 47/47/1 46/46/1 45/45/1
f 47/47/1 48/48/1 46/46/1
f 1/1/1 48/48/1 47/47/1
f 51/51/32 50/50/32 49/49/32
f 51/51/33 52/52/33 50/50/33
f 53/53/34 52/52/34 51/51/34
f 53/53/35 54/54/35 52/52/35
f 4/4/1 55/55/1 2/2/1
f 4/4/1 10/10/1 55/55/1
f 6/6/36 10/10/36 4/4/36
f 6/6/37 8/8/37 10/10/37
f 58/58/38 57/57/38 56/56/38
f 58/58/39 59/59/39 57/57/39
f 60/60/40 59/59/40 58/58/40
f 60/60/41 61/61/41 59/59/41
f 64/64/42 63/63/42 62/62/42
f 64/64/43 65/65/43 63/63/43
f 66/66/44 65/65/44 64/64/44
f 66/66/45 67/67/45 65/65/45
f 69/69/46 66/66/46 68/68/46
f 69/69/47 70/70/47 66/66/47
f 71/71/48 70/70/48 69/69/48
f 71/71/49 72/72/49 70/70/49
f 74/74/50 42/42/50 73/73/50
f 74/74/51 44/44/51 42/42/51
f 75/75/52 44/44/52 74/74/52
f 78/78/53 77/77/53 76/76/53
f 78/78/54 41/41/54 77/77/54
f 39/39/55 41/41/55 78/78/55
f 81/81/56 80/80/56 79/79/56
f 81/81/57 82/82/57 80/80/57
f 83/83/57 82/82/57 81/81/57
f 30/30/58 84/84/58 28/28/58
f 30/30/59 85/85/59 84/84/59
f 86/86/60 85/85/60 30/30/60
f 89/89/1 88/88/1 87/87/1
f 89/89/1 90/90/1 88/88/1
f 91/91/1 90/90/1 89/89/1
f 94/94/56 93/93/56 92/92/56
f 94/94/56 95/95/56 93/93/56
f 96/96/56 95/95/56 94/94/56
f 81/81/56 98/98/56 97/97/56
f 81/81/56 99/99/56 98/98/56
f 79/79/56 99/99/56 81/81/56
f 102/102/1 101/101/1 100/100/1
f 102/102/1 103/103/1 101/101/1
f 104/104/1 103/103/1 102/102/1
f 105/105/61 47/47/61 45/45/61
f 105/105/62 7/7/62 47/47/62
f 9/9/63 7/7/63 105/105/63
f 108/108/56 107/107/56 106/106/56
f 108/108/56 109/109/56 107/107/56
f 110/110/56 109/109/56 108/108/56
f 61/61/64 111/111/64 59/59/64
f 61/61/65 112/112/65 111/111/65
f 113/113/66 112/112/66 61/61/66
f 47/47/1 3/3/1 1/1/1
f 47/47/61 5/5/61 3/3/61
f 7/7/67 5/5/67 47/47/67
f 116/116/68 115/115/68 114/114/68
f 116/116/69 60/60/69 115/115/69
f 117/117/70 60/60/70 116/116/70
f 108/108/56 118/118/56 110/110/56
f 108/108/56 119/119/56 118/118/56
f 120/120/56 119/119/56 108/108/56
f 123/123/71 122/122/71 121/121/71
f 123/123/72 124/124/72 122/122/72
f 125/125/73 124/124/73 123/123/73
f 128/128/1 127/127/1 126/126/1
f 128/128/1 129/129/1 127/127/1
f 130/130/1 129/129/1 128/128/1
f 133/133/74 132/132/74 131/131/74
f 133/133/75 134/134/75 132/132/75
f 135/135/76 134/134/76 133/133/76
f 136/136/76 135/135/76 133/133/76
f 136/136/77 137/137/77 135/135/77
f 138/138/78 137/137/78 136/136/78
f 141/141/79 140/140/79 139/139/79
f 141/141/80 142/142/80 140/140/80
f 143/143/81 142/142/81 141/141/81
f 141/141/82 145/145/82 144/144/82
f 141/141/83 146/146/83 145/145/83
f 139/139/84 146/146/84 141/141/84
f 149/149/57 148/148/57 147/147/57
f 149/149/57 150/150/57 148/148/57
f 153/153/56 152/152/56 151/151/56
f 153/153/56 154/154/56 152/152/56
f 87/87/85 156/156/85 155/155/85
f 87/87/85 157/157/85 156/156/85
f 158/158/56 108/108/56 106/106/56
f 158/158/56 120/120/56 108/108/56
f 161/161/1 160/160/1 159/159/1
f 161/161/1 162/162/1 160/160/1
f 11/11/86 105/105/86 45/45/86
f 11/11/87 9/9/87 105/105/87
f 165/165/56 164/164/56 163/163/56
f 165/165/56 166/166/56 164/164/56
f 87/87/88 168/168/88 167/167/88
f 87/87/88 169/169/88 168/168/88
f 172/172/89 171/171/89 170/170/89
f 172/172/89 173/173/89 171/171/89
f 10/10/1 174/174/1 55/55/1
f 10/10/1 12/12/1 174/174/1
f 176/176/85 175/175/85 170/170/85
f 176/176/85 152/152/85 175/175/85
f 141/141/90 177/177/90 143/143/90
f 141/141/91 144/144/91 177/177/91
f 178/178/56 152/152/56 154/154/56
f 178/178/56 172/172/56 152/152/56
f 180/180/92 122/122/92 179/179/92
f 180/180/93 121/121/93 122/122/93
f 183/183/94 182/182/94 181/181/94
f 183/183/95 184/184/95 182/182/95
f 187/187/96 186/186/96 185/185/96
f 187/187/97 188/188/97 186/186/97
f 191/191/98 190/190/98 189/189/98
f 191/191/99 192/192/99 190/190/99
f 194/194/100 115/115/100 193/193/100
f 194/194/101 114/114/101 115/115/101
f 197/197/102 196/196/102 195/195/102
f 197/197/103 198/198/103 196/196/103
f 198/198/104 199/199/104 196/196/104
f 198/198/105 200/200/105 199/199/105
f 201/201/106 199/199/106 200/200/106
f 201/201/107 202/202/107 199/199/107
f 184/184/108 203/203/108 182/182/108
f 184/184/109 204/204/109 203/203/109
f 205/205/110 203/203/110 204/204/110
f 205/205/111 206/206/111 203/203/111
f 208/208/112 54/54/112 207/207/112
f 208/208/113 52/52/113 54/54/113
f 210/210/114 68/68/114 209/209/114
f 210/210/115 69/69/115 68/68/115
f 213/213/116 212/212/116 211/211/116
f 213/213/117 214/214/117 212/212/117
f 217/217/89 216/216/89 215/215/89
f 217/217/89 218/218/89 216/216/89
f 221/221/88 220/220/88 219/219/88
f 221/221/88 222/222/88 220/220/88
f 224/224/56 164/164/56 223/223/56
f 224/224/56 163/163/56 164/164/56
f 226/226/1 160/160/1 225/225/1
f 226/226/1 159/159/1 160/160/1
f 214/214/118 227/227/118 212/212/118
f 214/214/118 37/37/118 227/227/118
f 230/230/119 229/229/119 228/228/119
f 117/117/120 116/116/120 231/231/120
f 43/43/121 77/77/121 41/41/121
f 232/232/1 104/104/1 102/102/1
f 233/233/1 91/91/1 89/89/1
f 67/67/122 73/73/122 65/65/122
f 70/70/123 72/72/123 234/234/123
f 235/235/56 96/96/56 94/94/56
f 236/236/124 190/190/124 192/192/124
f 35/35/125 227/227/125 37/37/125
f 20/20/15 237/237/15 22/22/15
f 238/238/1 130/130/1 128/128/1
