# Blender v2.77 (sub 0) OBJ File: ''
# www.blender.org
mtllib Mold_02.mtl
o Model_Mold_02
v 0.082799 -0.015230 0.395715
v 0.065211 0.087312 0.313231
v 0.175000 0.118676 0.289014
v 0.221637 -0.014724 0.365089
v -0.071322 -0.016137 0.354667
v 0.257916 0.083877 0.220002
v 0.330702 -0.013809 0.280055
v -0.056718 0.027832 0.280749
v -0.216072 -0.016265 0.257505
v 0.306283 0.070362 0.123053
v 0.395505 -0.013409 0.157881
v -0.172876 0.042168 0.205986
v -0.336891 -0.015134 0.131826
v 0.314561 0.077122 0.012454
v 0.401557 -0.014243 0.015834
v -0.266670 0.108169 0.104571
v -0.404081 -0.015156 -0.012826
v 0.264143 0.012722 -0.101550
v 0.334370 -0.016436 -0.128818
v -0.319796 0.100187 -0.009827
v -0.398028 -0.014704 -0.154873
v 0.170599 -0.002808 -0.203311
v 0.216073 -0.016708 -0.257506
v -0.315010 0.080802 -0.122153
v -0.333225 -0.015523 -0.277047
v 0.054140 -0.033516 -0.277764
v 0.068799 -0.017654 -0.351659
v -0.263766 0.042223 -0.218763
v -0.224160 -0.016531 -0.362080
v -0.067734 -0.045889 -0.310223
v -0.085323 -0.017981 -0.392707
v -0.177522 -0.006112 -0.286005
v 0.151571 0.033539 -0.180634
v 0.047826 0.023263 -0.247277
v -0.060530 -0.019622 -0.276440
v -0.158010 0.018247 -0.254599
v -0.234702 0.055443 -0.194376
v -0.280693 0.092132 -0.108391
v 0.235215 0.028451 -0.090038
v -0.285275 0.135935 -0.008599
v 0.270460 0.098904 0.009893
v -0.237696 0.137251 0.093028
v 0.254337 0.115299 0.101120
v -0.148769 0.088513 0.176943
v 0.215624 0.139182 0.185651
v -0.049507 0.054924 0.246336
v 0.155468 0.157786 0.257575
v 0.058007 0.112867 0.279449
v 0.231777 0.101056 0.008671
v 0.215322 0.134827 0.082988
v 0.182578 0.168095 0.156738
v 0.130472 0.191646 0.218066
v 0.049037 0.118625 0.237381
v -0.039305 0.084162 0.206004
v 0.198901 0.029021 -0.075098
v -0.124131 0.122909 0.147650
v 0.127169 0.061472 -0.151553
v -0.201078 0.152852 0.077863
v 0.039421 0.089624 -0.208925
v -0.242290 0.147232 -0.007070
v -0.051560 0.029564 -0.234373
v -0.237409 0.123788 -0.090622
v -0.132995 0.031582 -0.215058
v -0.197430 0.058875 -0.163101
v 0.018215 0.093478 -0.164763
v -0.042584 0.066753 -0.192280
v -0.092488 0.047840 -0.168701
v -0.147049 0.085154 -0.120826
v -0.184722 0.139826 -0.058780
v -0.199277 0.150991 -0.005540
v -0.161542 0.170059 0.049515
v -0.026499 0.058142 -0.116847
v 0.094184 0.122528 -0.112244
v -0.078658 0.088320 -0.063439
v -0.122197 0.147448 -0.002798
v -0.093333 0.142271 0.111077
v 0.049409 0.105128 -0.058883
v 0.158946 0.073237 -0.046478
v -0.001262 0.110867 0.001504
v -0.051481 0.127163 0.061349
v -0.019358 0.113648 0.163747
v 0.119623 0.131059 0.005800
v 0.195264 0.111190 0.008340
v 0.177893 0.139267 0.059682
v 0.144426 0.175413 0.123754
v 0.076134 0.144774 0.066447
v 0.089964 0.167131 0.171709
v 0.023964 0.148736 0.119743
v 0.040046 0.133056 0.195181
vt 0.5474 0.2998
vt 0.4948 0.3265
vt 0.4519 0.2782
vt 0.5206 0.2274
vt 0.4107 0.3579
vt 0.6011 0.2790
vt 0.6029 0.2124
vt 0.4479 0.3798
vt 0.3971 0.4521
vt 0.6560 0.2925
vt 0.6817 0.2348
vt 0.4411 0.4516
vt 0.4085 0.5491
vt 0.6969 0.3323
vt 0.7420 0.2906
vt 0.4729 0.5218
vt 0.4521 0.6315
vt 0.7402 0.3893
vt 0.7750 0.3711
vt 0.4980 0.5797
vt 0.5223 0.6774
vt 0.7488 0.4623
vt 0.7843 0.4627
vt 0.5421 0.6164
vt 0.6000 0.6878
vt 0.7410 0.5365
vt 0.7741 0.5535
vt 0.5985 0.6348
vt 0.6726 0.6715
vt 0.7126 0.5959
vt 0.7374 0.6306
vt 0.6607 0.6289
vt 0.7265 0.4598
vt 0.7152 0.5221
vt 0.6998 0.5817
vt 0.6518 0.6080
vt 0.5993 0.6149
vt 0.5484 0.6009
vt 0.7257 0.3967
vt 0.5100 0.5639
vt 0.6824 0.3491
vt 0.4882 0.5146
vt 0.6434 0.3252
vt 0.4707 0.4528
vt 0.5988 0.3149
vt 0.4677 0.3909
vt 0.5536 0.3189
vt 0.5060 0.3420
vt 0.6726 0.3640
vt 0.6362 0.3471
vt 0.5966 0.3383
vt 0.5606 0.3388
vt 0.5152 0.3604
vt 0.4919 0.4022
vt 0.7107 0.4053
vt 0.4966 0.4548
vt 0.7049 0.4581
vt 0.5031 0.5065
vt 0.6856 0.5058
vt 0.5208 0.5490
vt 0.6782 0.5594
vt 0.5531 0.5756
vt 0.6447 0.5846
vt 0.6016 0.5914
vt 0.6677 0.5024
vt 0.6614 0.5375
vt 0.6380 0.5530
vt 0.5984 0.5559
vt 0.5562 0.5456
vt 0.5326 0.5334
vt 0.5239 0.5016
vt 0.6355 0.5108
vt 0.6680 0.4572
vt 0.5991 0.5102
vt 0.5549 0.5043
vt 0.5232 0.4557
vt 0.6367 0.4572
vt 0.6777 0.4105
vt 0.5969 0.4584
vt 0.5565 0.4561
vt 0.5207 0.4103
vt 0.6346 0.4087
vt 0.6601 0.3780
vt 0.6322 0.3691
vt 0.5949 0.3609
vt 0.5958 0.4058
vt 0.5603 0.3668
vt 0.5571 0.4082
vt 0.5303 0.3779
vn 0.3226 0.6842 0.6541
vn -0.1974 0.6780 0.7081
vn -0.0905 0.6433 0.7602
vn 0.3516 0.6171 0.7040
vn -0.3135 0.7398 0.5953
vn 0.6261 0.6892 0.3647
vn 0.6030 0.6743 0.4263
vn -0.3493 0.7289 0.5888
vn -0.4011 0.7035 0.5867
vn 0.6517 0.7452 0.1410
vn 0.6698 0.7208 0.1786
vn -0.3667 0.6810 0.6339
vn -0.6584 0.5709 0.4905
vn 0.5539 0.7992 -0.2336
vn 0.6350 0.7550 -0.1638
vn -0.5846 0.6330 0.5075
vn -0.7920 0.5997 0.1145
vn 0.3689 0.8262 -0.4258
vn 0.3795 0.8556 -0.3520
vn -0.7126 0.6980 0.0707
vn -0.6531 0.7116 -0.2591
vn 0.2460 0.8820 -0.4019
vn 0.0447 0.9896 -0.1366
vn -0.5120 0.8066 -0.2955
vn -0.3039 0.8581 -0.4139
vn 0.0388 0.9351 -0.3522
vn -0.1100 0.9835 0.1434
vn -0.2029 0.8657 -0.4576
vn 0.0380 0.9785 -0.2029
vn 0.0552 0.9723 -0.2272
vn 0.0524 0.9891 0.1378
vn 0.0647 0.9236 -0.3778
vn 0.4369 0.7340 -0.5200
vn 0.2069 0.5942 -0.7772
vn 0.0590 0.6884 -0.7229
vn 0.0768 0.8302 -0.5521
vn -0.0020 0.8812 -0.4727
vn -0.2576 0.8775 -0.4045
vn 0.2851 0.8248 -0.4883
vn -0.5027 0.8633 -0.0448
vn 0.3223 0.8798 -0.3495
vn -0.3980 0.8027 0.4441
vn 0.5505 0.8349 -0.0025
vn -0.2434 0.7103 0.6605
vn 0.6209 0.7585 0.1978
vn -0.3716 0.7414 0.5588
vn 0.2085 0.8233 0.5279
vn -0.3578 0.7461 0.5615
vn 0.1848 0.8591 -0.4773
vn 0.3947 0.8925 -0.2180
vn 0.3943 0.9175 -0.0527
vn -0.0411 0.9695 0.2418
vn -0.4740 0.7980 0.3722
vn -0.2789 0.8266 0.4888
vn 0.3122 0.8573 -0.4093
vn -0.0995 0.8245 0.5570
vn 0.4868 0.7785 -0.3962
vn -0.2079 0.9252 0.3175
vn 0.1181 0.7796 -0.6150
vn -0.2645 0.9570 -0.1194
vn -0.1250 0.7634 -0.6337
vn -0.1090 0.8787 -0.4648
vn 0.0244 0.8778 -0.4785
vn 0.0736 0.8655 -0.4954
vn -0.2240 0.9512 -0.2122
vn -0.3412 0.9177 -0.2036
vn -0.0681 0.9404 -0.3333
vn 0.1871 0.8409 -0.5078
vn 0.1129 0.8977 -0.4258
vn -0.1019 0.9769 -0.1876
vn 0.0309 0.9981 0.0538
vn -0.1945 0.9709 -0.1401
vn 0.2142 0.9487 -0.2325
vn 0.1909 0.8922 -0.4094
vn 0.2665 0.9181 -0.2934
vn 0.0670 0.9564 0.2842
vn -0.1250 0.9739 -0.1897
vn 0.4166 0.7984 -0.4347
vn -0.0207 0.9456 -0.3247
vn 0.1211 0.9831 -0.1370
vn -0.2288 0.9068 0.3541
vn 0.0928 0.9337 -0.3457
vn 0.2564 0.8075 -0.5312
vn 0.2187 0.8996 -0.3780
vn 0.0472 0.9672 -0.2495
vn -0.1103 0.9556 -0.2732
vn -0.3353 0.9417 0.0269
vn -0.2277 0.9737 -0.0071
vn -0.4850 0.8249 0.2904
usemtl Mat_Mold
s 1
f 3/1/1 2/2/2 1/3/3
f 4/4/4 3/1/1 1/3/3
f 1/3/3 2/2/2 5/5/5
f 6/6/6 3/1/1 4/4/4
f 7/7/7 6/6/6 4/4/4
f 2/2/2 8/8/8 5/5/5
f 5/5/5 8/8/8 9/9/9
f 10/10/10 6/6/6 7/7/7
f 11/11/11 10/10/10 7/7/7
f 8/8/8 12/12/12 9/9/9
f 9/9/9 12/12/12 13/13/13
f 14/14/14 10/10/10 11/11/11
f 15/15/15 14/14/14 11/11/11
f 12/12/12 16/16/16 13/13/13
f 13/13/13 16/16/16 17/17/17
f 18/18/18 14/14/14 15/15/15
f 19/19/19 18/18/18 15/15/15
f 16/16/16 20/20/20 17/17/17
f 17/17/17 20/20/20 21/21/21
f 22/22/22 18/18/18 19/19/19
f 23/23/23 22/22/22 19/19/19
f 20/20/20 24/24/24 21/21/21
f 21/21/21 24/24/24 25/25/25
f 26/26/26 22/22/22 23/23/23
f 27/27/27 26/26/26 23/23/23
f 24/24/24 28/28/28 25/25/25
f 25/25/25 28/28/28 29/29/29
f 30/30/30 26/26/26 27/27/27
f 31/31/31 30/30/30 27/27/27
f 29/29/29 32/32/32 31/31/31
f 28/28/28 32/32/32 29/29/29
f 32/32/32 30/30/30 31/31/31
f 22/22/22 33/33/33 18/18/18
f 26/26/26 34/34/34 22/22/22
f 34/34/34 33/33/33 22/22/22
f 30/30/30 35/35/35 26/26/26
f 35/35/35 34/34/34 26/26/26
f 32/32/32 36/36/36 30/30/30
f 36/36/36 35/35/35 30/30/30
f 28/28/28 37/37/37 32/32/32
f 37/37/37 36/36/36 32/32/32
f 24/24/24 38/38/38 28/28/28
f 38/38/38 37/37/37 28/28/28
f 33/33/33 39/39/39 18/18/18
f 18/18/18 39/39/39 14/14/14
f 40/40/40 38/38/38 24/24/24
f 20/20/20 40/40/40 24/24/24
f 39/39/39 41/41/41 14/14/14
f 14/14/14 41/41/41 10/10/10
f 42/42/42 40/40/40 20/20/20
f 16/16/16 42/42/42 20/20/20
f 41/41/41 43/43/43 10/10/10
f 10/10/10 43/43/43 6/6/6
f 44/44/44 42/42/42 16/16/16
f 12/12/12 44/44/44 16/16/16
f 43/43/43 45/45/45 6/6/6
f 6/6/6 45/45/45 3/1/1
f 46/46/46 44/44/44 12/12/12
f 8/8/8 46/46/46 12/12/12
f 45/45/45 47/47/47 3/1/1
f 3/1/1 47/47/47 2/2/2
f 2/2/2 48/48/48 8/8/8
f 48/48/48 46/46/46 8/8/8
f 47/47/47 48/48/48 2/2/2
f 43/43/43 41/41/41 49/49/49
f 45/45/45 43/43/43 50/50/50
f 50/50/50 43/43/43 49/49/49
f 47/47/47 45/45/45 51/51/51
f 51/51/51 45/45/45 50/50/50
f 48/48/48 47/47/47 52/52/52
f 52/52/52 47/47/47 51/51/51
f 46/46/46 48/48/48 53/53/53
f 53/53/53 48/48/48 52/52/52
f 44/44/44 46/46/46 54/54/54
f 54/54/54 46/46/46 53/53/53
f 49/49/49 41/41/41 55/55/55
f 41/41/41 39/39/39 55/55/55
f 56/56/56 44/44/44 54/54/54
f 42/42/42 44/44/44 56/56/56
f 55/55/55 39/39/39 57/57/57
f 39/39/39 33/33/33 57/57/57
f 58/58/58 42/42/42 56/56/56
f 40/40/40 42/42/42 58/58/58
f 57/57/57 33/33/33 59/59/59
f 33/33/33 34/34/34 59/59/59
f 60/60/60 40/40/40 58/58/58
f 38/38/38 40/40/40 60/60/60
f 59/59/59 34/34/34 61/61/61
f 34/34/34 35/35/35 61/61/61
f 62/62/62 38/38/38 60/60/60
f 37/37/37 38/38/38 62/62/62
f 61/61/61 35/35/35 63/63/63
f 35/35/35 36/36/36 63/63/63
f 36/36/36 37/37/37 64/64/64
f 64/64/64 37/37/37 62/62/62
f 63/63/63 36/36/36 64/64/64
f 57/57/57 59/59/59 65/65/65
f 59/59/59 61/61/61 66/66/66
f 65/65/65 59/59/59 66/66/66
f 61/61/61 63/63/63 67/67/67
f 66/66/66 61/61/61 67/67/67
f 63/63/63 64/64/64 68/68/68
f 67/67/67 63/63/63 68/68/68
f 64/64/64 62/62/62 69/69/69
f 68/68/68 64/64/64 69/69/69
f 62/62/62 60/60/60 70/70/70
f 69/69/69 62/62/62 70/70/70
f 70/70/70 60/60/60 71/71/71
f 70/70/70 71/71/71 69/69/69
f 60/60/60 58/58/58 71/71/71
f 67/67/67 72/72/72 66/66/66
f 72/72/72 65/65/65 66/66/66
f 73/73/73 57/57/57 65/65/65
f 55/55/55 57/57/57 73/73/73
f 68/68/68 74/74/74 67/67/67
f 74/74/74 72/72/72 67/67/67
f 69/69/69 75/75/75 68/68/68
f 71/71/71 75/75/75 69/69/69
f 75/75/75 74/74/74 68/68/68
f 71/71/71 58/58/58 76/76/76
f 71/71/71 76/76/76 75/75/75
f 58/58/58 56/56/56 76/76/76
f 72/72/72 77/77/77 65/65/65
f 77/77/77 73/73/73 65/65/65
f 78/78/78 55/55/55 73/73/73
f 49/49/49 55/55/55 78/78/78
f 74/74/74 79/79/79 72/72/72
f 79/79/79 77/77/77 72/72/72
f 75/75/75 80/80/80 74/74/74
f 76/76/76 80/80/80 75/75/75
f 80/80/80 79/79/79 74/74/74
f 76/76/76 56/56/56 81/81/81
f 80/80/80 76/76/76 81/81/81
f 56/56/56 54/54/54 81/81/81
f 73/73/73 77/77/77 82/82/82
f 78/78/78 73/73/73 82/82/82
f 83/83/83 49/49/49 78/78/78
f 50/50/50 49/49/49 83/83/83
f 83/83/83 78/78/78 84/84/84
f 84/84/84 50/50/50 83/83/83
f 78/78/78 82/82/82 84/84/84
f 51/51/51 50/50/50 84/84/84
f 85/85/85 51/51/51 84/84/84
f 84/84/84 82/82/82 85/85/85
f 52/52/52 51/51/51 85/85/85
f 82/82/82 77/77/77 86/86/86
f 82/82/82 86/86/86 85/85/85
f 77/77/77 79/79/79 86/86/86
f 87/87/87 52/52/52 85/85/85
f 85/85/85 86/86/86 87/87/87
f 53/53/53 52/52/52 87/87/87
f 86/86/86 79/79/79 88/88/88
f 86/86/86 88/88/88 87/87/87
f 79/79/79 80/80/80 88/88/88
f 88/88/88 80/80/80 81/81/81
f 89/89/89 53/53/53 87/87/87
f 87/87/87 88/88/88 89/89/89
f 88/88/88 81/81/81 89/89/89
f 54/54/54 53/53/53 89/89/89
f 81/81/81 54/54/54 89/89/89
