# Blender v2.77 (sub 0) OBJ File: ''
# www.blender.org
mtllib Mold_04.mtl
o Model_Mold_04
v -0.133573 -0.018303 -0.923131
v -0.123699 0.033827 -0.746573
v -0.290475 0.053079 -0.857654
v -0.312336 0.000833 -0.909623
v 0.072411 -0.057267 -0.818609
v -0.418791 0.081240 -0.743143
v -0.455056 -0.018663 -0.806153
v 0.065958 0.032904 -0.683764
v 0.301143 -0.012281 -0.677264
v -0.510368 0.072886 -0.551567
v -0.562448 0.025271 -0.603304
v 0.239488 0.032843 -0.513389
v 0.531581 -0.025597 -0.467636
v -0.596890 0.070133 -0.333392
v -0.654883 -0.018513 -0.359160
v 0.440251 0.041896 -0.385020
v 0.661533 -0.025108 -0.266125
v -0.609782 0.051886 -0.094573
v -0.718410 -0.007040 -0.104647
v 0.597369 0.066398 -0.263982
v 0.720304 -0.082012 -0.042141
v -0.640346 0.110519 0.118875
v -0.727270 0.020233 0.121774
v 0.644524 0.057628 -0.076148
v 0.727270 -0.143361 0.106620
v -0.596555 0.086361 0.322630
v -0.662410 -0.009722 0.346239
v 0.683001 -0.003305 0.101881
v 0.697395 -0.122526 0.291298
v -0.477961 0.068396 0.488227
v -0.523260 0.007818 0.532966
v 0.619258 0.046871 0.270665
v 0.635565 -0.102985 0.461105
v -0.368449 0.065671 0.674482
v -0.384202 0.001218 0.705820
v -0.197334 0.082781 0.725077
v -0.227557 0.007766 0.815333
v -0.202759 0.116855 0.531984
v -0.424072 0.127963 0.439867
v -0.063049 0.070531 0.765007
v -0.078979 -0.039758 0.899373
v 0.573002 0.048144 0.445791
v 0.524510 -0.026114 0.647055
v -0.517289 0.131678 0.281935
v -0.523869 0.124412 0.086889
v -0.351618 0.179832 0.256285
v -0.529450 0.120334 -0.099630
v -0.339826 0.070321 0.008215
v -0.516138 0.135203 -0.299684
v -0.430885 0.091984 -0.487014
v -0.326170 0.083320 -0.228657
v -0.356300 0.109376 -0.638729
v -0.198755 0.083198 -0.590532
v -0.195730 0.100177 -0.399963
v -0.074824 0.097506 -0.573487
v 0.066913 0.060017 -0.534304
v 0.006023 0.060030 -0.343082
v 0.217280 0.087584 -0.465822
v 0.348602 0.057607 -0.315976
v 0.183135 0.129851 -0.274315
v 0.490623 0.112230 -0.239646
v 0.581549 0.138941 -0.097261
v 0.362757 0.142961 -0.106956
v 0.624351 0.105150 0.071834
v 0.577811 0.130494 0.232776
v 0.473562 0.159199 0.116250
v 0.522565 0.117541 0.385158
v 0.470383 0.090933 0.591676
v 0.361292 -0.043538 0.788254
v 0.298493 0.061530 0.613253
v 0.188921 -0.051372 0.895927
v 0.467464 0.132911 0.557388
v 0.323714 0.109702 0.291753
v 0.224693 0.190183 -0.011584
v 0.169500 0.053414 0.633452
v 0.043347 -0.053837 0.923130
v 0.306310 0.113863 0.580192
v 0.062793 0.044718 0.805155
v 0.174709 0.096265 0.527819
v 0.190024 0.092829 0.399703
v 0.073677 0.081258 0.559353
v -0.023417 0.117762 0.530216
v 0.016245 0.098267 0.421526
v 0.175788 0.168402 0.188419
v -0.002409 0.148939 0.055399
v 0.073948 0.128752 0.264502
v 0.097397 0.157837 -0.133663
v 0.003765 0.088982 -0.186037
v -0.102048 0.103685 -0.235231
v -0.132309 0.125752 -0.099909
v -0.158347 0.176189 0.038112
v -0.214605 0.182936 0.170624
v -0.023221 0.116396 0.269538
v -0.108841 0.103095 0.365282
vt 0.3143 0.9276
vt 0.3975 0.8796
vt 0.3918 0.9689
vt 0.3003 0.9629
vt 0.4997 0.9267
vt 0.2483 0.8720
vt 0.2237 0.9097
vt 0.4879 0.8498
vt 0.6141 0.8578
vt 0.2017 0.7775
vt 0.1671 0.8070
vt 0.5798 0.7700
vt 0.7344 0.7592
vt 0.1577 0.6698
vt 0.1079 0.6864
vt 0.6726 0.7075
vt 0.8134 0.6615
vt 0.1487 0.5512
vt 0.0805 0.5552
vt 0.7528 0.6416
vt 0.8592 0.5467
vt 0.1411 0.4440
vt 0.0796 0.4388
vt 0.7866 0.5528
vt 0.8722 0.4627
vt 0.1666 0.3433
vt 0.1171 0.3244
vt 0.8057 0.4648
vt 0.8625 0.3592
vt 0.2258 0.2600
vt 0.1944 0.2319
vt 0.7830 0.3782
vt 0.8246 0.2670
vt 0.2865 0.1726
vt 0.2697 0.1459
vt 0.3696 0.1453
vt 0.3531 0.0937
vt 0.3662 0.2445
vt 0.2606 0.2895
vt 0.4365 0.1249
vt 0.4288 0.0448
vt 0.7541 0.2934
vt 0.7478 0.1768
vt 0.2131 0.3668
vt 0.2047 0.4625
vt 0.2982 0.3817
vt 0.1983 0.5548
vt 0.2911 0.5059
vt 0.2046 0.6527
vt 0.2448 0.7448
vt 0.2978 0.6211
vt 0.2829 0.8187
vt 0.3606 0.7977
vt 0.3610 0.7053
vt 0.4167 0.7911
vt 0.4860 0.7735
vt 0.4562 0.6807
vt 0.5627 0.7384
vt 0.6229 0.6715
vt 0.5465 0.6447
vt 0.6957 0.6276
vt 0.7422 0.5585
vt 0.6280 0.5661
vt 0.7644 0.4779
vt 0.7466 0.3989
vt 0.6864 0.4552
vt 0.7200 0.3258
vt 0.7056 0.2191
vt 0.6616 0.1035
vt 0.6211 0.1970
vt 0.5706 0.0502
vt 0.6942 0.2456
vt 0.6172 0.3705
vt 0.5597 0.5207
vt 0.5562 0.1850
vt 0.4953 0.0337
vt 0.6210 0.2290
vt 0.4985 0.1068
vt 0.5515 0.2457
vt 0.5540 0.3112
vt 0.5034 0.2290
vt 0.4567 0.2431
vt 0.4750 0.2944
vt 0.5402 0.4206
vt 0.4597 0.4840
vt 0.4980 0.3772
vt 0.5060 0.5779
vt 0.4570 0.6047
vt 0.4053 0.6257
vt 0.3878 0.5614
vt 0.3760 0.4957
vt 0.3592 0.4242
vt 0.4532 0.3746
vt 0.4122 0.3250
vn -0.0346 0.8896 -0.4554
vn 0.1940 0.9228 -0.3330
vn 0.2361 0.8767 -0.4191
vn -0.1439 0.8140 -0.5627
vn 0.2321 0.8903 -0.3917
vn -0.3313 0.8751 -0.3526
vn -0.5424 0.6605 -0.5191
vn 0.2060 0.9125 -0.3534
vn 0.2037 0.9199 -0.3351
vn -0.5042 0.8375 -0.2106
vn -0.6639 0.6809 -0.3093
vn 0.2232 0.9208 -0.3199
vn 0.3611 0.8472 -0.3896
vn -0.5920 0.7948 -0.1337
vn -0.6778 0.7203 -0.1477
vn 0.2570 0.8866 -0.3846
vn 0.7333 0.6149 -0.2901
vn -0.5764 0.8090 -0.1157
vn -0.6204 0.7701 -0.1483
vn 0.5524 0.7514 -0.3610
vn 0.9015 0.4317 -0.0316
vn -0.5228 0.8525 0.0067
vn -0.6780 0.7348 0.0217
vn 0.8240 0.5549 -0.1143
vn 0.9171 0.3854 0.1022
vn -0.5495 0.7782 0.3041
vn -0.6797 0.6399 0.3586
vn 0.8955 0.4364 0.0877
vn 0.8964 0.3928 0.2056
vn -0.4854 0.7780 0.3988
vn -0.6362 0.6191 0.4605
vn 0.8453 0.4892 0.2149
vn 0.8538 0.4287 0.2955
vn -0.3988 0.7991 0.4499
vn -0.5004 0.6523 0.5693
vn -0.1465 0.8959 0.4193
vn -0.2162 0.7424 0.6341
vn -0.0194 0.9882 0.1523
vn -0.1995 0.9445 0.2611
vn 0.0240 0.9080 0.4184
vn -0.0658 0.7750 0.6285
vn 0.8090 0.5101 0.2921
vn 0.5568 0.6422 0.5269
vn -0.2655 0.9602 0.0868
vn -0.1452 0.9820 -0.1206
vn -0.0645 0.9979 -0.0094
vn -0.1722 0.9849 -0.0177
vn -0.0957 0.9844 -0.1476
vn -0.1710 0.9833 -0.0623
vn -0.1406 0.9877 -0.0684
vn 0.0215 0.9997 -0.0153
vn -0.0264 0.9949 -0.0971
vn 0.1345 0.9821 -0.1317
vn 0.0326 0.9994 -0.0107
vn 0.1506 0.9813 -0.1202
vn 0.1122 0.9730 -0.2017
vn -0.0213 0.9910 -0.1319
vn 0.1240 0.9614 -0.2458
vn 0.1924 0.9251 -0.3273
vn -0.0283 0.9692 -0.2448
vn 0.1774 0.9173 -0.3565
vn 0.4276 0.8910 -0.1523
vn 0.1189 0.9686 -0.2182
vn 0.6450 0.7641 0.0135
vn 0.4862 0.8586 0.1625
vn 0.1321 0.9897 0.0549
vn 0.4153 0.8951 0.1621
vn 0.4525 0.6619 0.5976
vn 0.1569 0.8505 0.5019
vn 0.0433 0.8009 0.5973
vn 0.2415 0.8677 0.4345
vn 0.3192 0.8791 0.3539
vn -0.0087 0.9884 0.1513
vn 0.0175 0.9988 -0.0451
vn 0.0820 0.9229 0.3763
vn 0.1292 0.8195 0.5583
vn -0.0946 0.9029 0.4193
vn 0.1736 0.8803 0.4415
vn -0.0535 0.9845 0.1673
vn -0.0455 0.9921 0.1171
vn 0.1408 0.9808 0.1349
vn 0.1482 0.9879 0.0449
vn 0.0450 0.9978 0.0485
vn -0.0427 0.9743 0.2211
vn -0.0266 0.9994 -0.0216
vn -0.0659 0.9746 0.2142
vn -0.2329 0.9497 -0.2092
vn -0.0832 0.9667 -0.2421
vn 0.0896 0.9867 -0.1354
vn -0.0877 0.9841 -0.1543
vn -0.0594 0.9823 -0.1778
vn -0.0348 0.9994 -0.0087
vn 0.0523 0.9807 0.1881
vn 0.0833 0.9889 0.1232
usemtl Mat_Mold
s 1
f 3/1/1 2/2/2 1/3/3
f 4/4/4 3/1/1 1/3/3
f 1/3/3 2/2/2 5/5/5
f 6/6/6 3/1/1 4/4/4
f 7/7/7 6/6/6 4/4/4
f 2/2/2 8/8/8 5/5/5
f 5/5/5 8/8/8 9/9/9
f 10/10/10 6/6/6 7/7/7
f 11/11/11 10/10/10 7/7/7
f 8/8/8 12/12/12 9/9/9
f 9/9/9 12/12/12 13/13/13
f 14/14/14 10/10/10 11/11/11
f 15/15/15 14/14/14 11/11/11
f 12/12/12 16/16/16 13/13/13
f 13/13/13 16/16/16 17/17/17
f 18/18/18 14/14/14 15/15/15
f 19/19/19 18/18/18 15/15/15
f 16/16/16 20/20/20 17/17/17
f 17/17/17 20/20/20 21/21/21
f 22/22/22 18/18/18 19/19/19
f 23/23/23 22/22/22 19/19/19
f 20/20/20 24/24/24 21/21/21
f 21/21/21 24/24/24 25/25/25
f 26/26/26 22/22/22 23/23/23
f 27/27/27 26/26/26 23/23/23
f 24/24/24 28/28/28 25/25/25
f 25/25/25 28/28/28 29/29/29
f 30/30/30 26/26/26 27/27/27
f 31/31/31 30/30/30 27/27/27
f 28/28/28 32/32/32 29/29/29
f 29/29/29 32/32/32 33/33/33
f 34/34/34 30/30/30 31/31/31
f 35/35/35 34/34/34 31/31/31
f 36/36/36 34/34/34 35/35/35
f 37/37/37 36/36/36 35/35/35
f 34/34/34 38/38/38 30/30/30
f 36/36/36 38/38/38 34/34/34
f 30/30/30 39/39/39 26/26/26
f 38/38/38 39/39/39 30/30/30
f 40/40/40 36/36/36 37/37/37
f 41/41/41 40/40/40 37/37/37
f 32/32/32 42/42/42 33/33/33
f 33/33/33 42/42/42 43/43/43
f 39/39/39 44/44/44 26/26/26
f 26/26/26 44/44/44 22/22/22
f 44/44/44 45/45/45 22/22/22
f 22/22/22 45/45/45 18/18/18
f 39/39/39 46/46/46 44/44/44
f 44/44/44 46/46/46 45/45/45
f 45/45/45 47/47/47 18/18/18
f 18/18/18 47/47/47 14/14/14
f 45/45/45 48/48/48 47/47/47
f 46/46/46 48/48/48 45/45/45
f 47/47/47 49/49/49 14/14/14
f 47/47/47 48/48/48 49/49/49
f 14/14/14 49/49/49 10/10/10
f 49/49/49 50/50/50 10/10/10
f 10/10/10 50/50/50 6/6/6
f 49/49/49 51/51/51 50/50/50
f 48/48/48 51/51/51 49/49/49
f 50/50/50 52/52/52 6/6/6
f 50/50/50 51/51/51 52/52/52
f 6/6/6 52/52/52 3/1/1
f 52/52/52 53/53/53 3/1/1
f 3/1/1 53/53/53 2/2/2
f 52/52/52 54/54/54 53/53/53
f 51/51/51 54/54/54 52/52/52
f 53/53/53 55/55/55 2/2/2
f 53/53/53 54/54/54 55/55/55
f 2/2/2 55/55/55 8/8/8
f 55/55/55 56/56/56 8/8/8
f 8/8/8 56/56/56 12/12/12
f 55/55/55 57/57/57 56/56/56
f 54/54/54 57/57/57 55/55/55
f 56/56/56 58/58/58 12/12/12
f 56/56/56 57/57/57 58/58/58
f 12/12/12 58/58/58 16/16/16
f 58/58/58 59/59/59 16/16/16
f 16/16/16 59/59/59 20/20/20
f 58/58/58 60/60/60 59/59/59
f 57/57/57 60/60/60 58/58/58
f 59/59/59 61/61/61 20/20/20
f 59/59/59 60/60/60 61/61/61
f 20/20/20 61/61/61 24/24/24
f 61/61/61 62/62/62 24/24/24
f 24/24/24 62/62/62 28/28/28
f 61/61/61 63/63/63 62/62/62
f 60/60/60 63/63/63 61/61/61
f 62/62/62 64/64/64 28/28/28
f 62/62/62 63/63/63 64/64/64
f 28/28/28 64/64/64 32/32/32
f 64/64/64 65/65/65 32/32/32
f 32/32/32 65/65/65 42/42/42
f 64/64/64 66/66/66 65/65/65
f 63/63/63 66/66/66 64/64/64
f 65/65/65 67/67/67 42/42/42
f 65/65/65 66/66/66 67/67/67
f 42/42/42 67/67/67 68/68/68
f 42/42/42 68/68/68 43/43/43
f 43/43/43 68/68/68 69/69/69
f 68/68/68 70/70/70 69/69/69
f 69/69/69 70/70/70 71/71/71
f 67/67/67 72/72/72 68/68/68
f 68/68/68 72/72/72 70/70/70
f 66/66/66 73/73/73 67/67/67
f 67/67/67 73/73/73 72/72/72
f 63/63/63 74/74/74 66/66/66
f 66/66/66 74/74/74 73/73/73
f 70/70/70 75/75/75 71/71/71
f 71/71/71 75/75/75 76/76/76
f 72/72/72 77/77/77 70/70/70
f 72/72/72 73/73/73 77/77/77
f 70/70/70 77/77/77 75/75/75
f 75/75/75 78/78/78 76/76/76
f 76/76/76 78/78/78 41/41/41
f 78/78/78 40/40/40 41/41/41
f 77/77/77 79/79/79 75/75/75
f 75/75/75 79/79/79 78/78/78
f 73/73/73 80/80/80 77/77/77
f 77/77/77 80/80/80 79/79/79
f 79/79/79 81/81/81 78/78/78
f 78/78/78 81/81/81 40/40/40
f 79/79/79 80/80/80 81/81/81
f 81/81/81 82/82/82 40/40/40
f 40/40/40 82/82/82 36/36/36
f 82/82/82 38/38/38 36/36/36
f 81/81/81 83/83/83 82/82/82
f 82/82/82 83/83/83 38/38/38
f 80/80/80 83/83/83 81/81/81
f 73/73/73 84/84/84 80/80/80
f 74/74/74 84/84/84 73/73/73
f 74/74/74 85/85/85 84/84/84
f 84/84/84 85/85/85 86/86/86
f 84/84/84 86/86/86 80/80/80
f 80/80/80 86/86/86 83/83/83
f 87/87/87 85/85/85 74/74/74
f 87/87/87 74/74/74 63/63/63
f 60/60/60 87/87/87 63/63/63
f 88/88/88 87/87/87 60/60/60
f 88/88/88 85/85/85 87/87/87
f 57/57/57 88/88/88 60/60/60
f 89/89/89 88/88/88 57/57/57
f 89/89/89 85/85/85 88/88/88
f 54/54/54 89/89/89 57/57/57
f 90/90/90 89/89/89 54/54/54
f 90/90/90 85/85/85 89/89/89
f 51/51/51 90/90/90 54/54/54
f 91/91/91 90/90/90 51/51/51
f 91/91/91 85/85/85 90/90/90
f 48/48/48 91/91/91 51/51/51
f 92/92/92 91/91/91 48/48/48
f 92/92/92 85/85/85 91/91/91
f 46/46/46 92/92/92 48/48/48
f 93/93/93 85/85/85 92/92/92
f 93/93/93 92/92/92 46/46/46
f 86/86/86 85/85/85 93/93/93
f 86/86/86 93/93/93 83/83/83
f 94/94/94 93/93/93 46/46/46
f 83/83/83 93/93/93 94/94/94
f 94/94/94 46/46/46 39/39/39
f 83/83/83 94/94/94 38/38/38
f 38/38/38 94/94/94 39/39/39
