mtllib rug.mtl
o rug
v -5.000000 0.025000 7.000000
v 5.000000 0.025000 7.000000
v -5.000000 0.025000 6.200000
v 5.000000 0.025000 6.200000
v 5.000000 0.025000 -6.200000
v 5.000000 0.025000 -7.000000
v -5.000000 0.025000 -6.200000
v -5.000000 0.025000 -7.000000
v -3.300000 0.025000 4.500000
v -5.000000 0.025000 4.500000
v -3.300000 0.025000 6.200000
v -3.300000 0.025000 0.000000
v 0.000000 0.025000 0.000000
v 0.000000 0.025000 4.500000
v 0.000000 0.025000 6.200000
v -5.000000 0.025000 0.000000
v -3.300000 0.025000 -6.200000
v -3.300000 0.025000 -4.500000
v -5.000000 0.025000 -4.500000
v 0.000000 0.025000 -4.500000
v 0.000000 0.025000 -6.200000
v 3.300000 0.025000 -4.500000
v 5.000000 0.025000 -4.500000
v 3.300000 0.025000 -6.200000
v 3.300000 0.025000 0.000000
v 5.000000 0.025000 0.000000
v 3.300000 0.025000 6.200000
v 3.300000 0.025000 4.500000
v 5.000000 0.025000 4.500000
vt 8.177220 0.934540
vt 0.000000 0.934540
vt 8.177220 0.000000
vt 0.000000 0.000000
vt 8.216270 0.000000
vt 8.216270 0.939003
vt 0.000000 0.000000
vt 0.000000 0.939003
vt 0.878906 0.265625
vt 0.878906 0.484375
vt 0.769531 0.265625
vt 0.769531 0.484375
vt 0.640625 0.984375
vt 0.640625 0.515625
vt 0.406250 0.984375
vt 0.406250 0.515625
vt 0.117188 0.265625
vt 0.117188 0.759765
vt 0.007812 0.265625
vt 0.007812 0.759765
vt 0.007812 0.984374
vt 0.007812 0.265625
vt 0.117188 0.984374
vt 0.117188 0.265625
vt 0.769531 0.265625
vt 0.769531 0.484375
vt 0.878906 0.265625
vt 0.878906 0.484375
vt 0.406250 0.515625
vt 0.640625 0.515625
vt 0.007812 0.265625
vt 0.007812 0.759765
vt 0.117188 0.265625
vt 0.117188 0.759765
vt 0.117188 0.265625
vt 0.007812 0.265625
vt 0.878906 0.265625
vt 0.878906 0.484375
vt 0.769531 0.265625
vt 0.769531 0.484375
vt 0.640625 0.984375
vt 0.640625 0.515625
vt 0.117188 0.759765
vt 0.007812 0.759765
vt 0.007812 0.984374
vt 0.007812 0.265625
vt 0.117188 0.984374
vt 0.117188 0.265625
vt 0.769531 0.265625
vt 0.769531 0.484375
vt 0.878906 0.265625
vt 0.878906 0.484375
vt 0.640625 0.515625
vt 0.007812 0.759765
vt 0.117188 0.759765
vt 0.117188 0.265625
vt 0.007812 0.265625
vn 0.0000 1.0000 0.0000
usemtl rug_string
s off
f 1/1/1 2/2/1 3/3/1
f 3/3/1 2/2/1 4/4/1
f 5/5/1 6/6/1 7/7/1
f 7/7/1 6/6/1 8/8/1
usemtl toon_interior_palette_3cmla_1
f 9/9/1 10/10/1 11/11/1
f 11/11/1 10/10/1 3/12/1
f 12/13/1 9/14/1 13/15/1
f 13/15/1 9/14/1 14/16/1
f 14/17/1 9/18/1 15/19/1
f 15/19/1 9/18/1 11/20/1
f 16/21/1 10/22/1 12/23/1
f 12/23/1 10/22/1 9/24/1
f 17/25/1 7/26/1 18/27/1
f 18/27/1 7/26/1 19/28/1
f 13/15/1 20/29/1 12/13/1
f 12/13/1 20/29/1 18/30/1
f 21/31/1 17/32/1 20/33/1
f 20/33/1 17/32/1 18/34/1
f 12/23/1 18/35/1 16/21/1
f 16/21/1 18/35/1 19/36/1
f 22/37/1 23/38/1 24/39/1
f 24/39/1 23/38/1 5/40/1
f 25/41/1 22/42/1 13/15/1
f 13/15/1 22/42/1 20/29/1
f 20/33/1 22/43/1 21/31/1
f 21/31/1 22/43/1 24/44/1
f 26/45/1 23/46/1 25/47/1
f 25/47/1 23/46/1 22/48/1
f 27/49/1 4/50/1 28/51/1
f 28/51/1 4/50/1 29/52/1
f 13/15/1 14/16/1 25/41/1
f 25/41/1 14/16/1 28/53/1
f 15/19/1 27/54/1 14/17/1
f 14/17/1 27/54/1 28/55/1
f 25/47/1 28/56/1 26/45/1
f 26/45/1 28/56/1 29/57/1
