# Created by MKDS Course Modifier
mtllib Driftveil City Booth.mtl
g polygon0
usemtl h_kage
v -7.382813 2 -17.82813
v -10.45313 2 -25.23438
v -17.82813 2 -7.382813
v -25.23438 2 -10.45313
v -17.82813 2 7.382813
v -25.23438 2 10.45313
v -7.382813 2 17.82813
v -10.45313 2 25.23438
v 7.382813 2 17.82813
v 10.45313 2 25.23438
v 17.82813 2 7.382813
v 25.23438 2 10.45313
v 17.82813 2 -7.382813
v 25.23438 2 -10.45313
v 7.382813 2 -17.82813
v 10.45313 2 -25.23438
vn 0 0.9980469 0
vn 0 0.9980469 0
vn 0 0.9980469 0
vn 0 0.9980469 0
vn 0 0.9980469 0
vn 0 0.9980469 0
vn 0 0.9980469 0
vn 0 0.9980469 0
vn 0 0.9980469 0
vn 0 0.9980469 0
vn 0 0.9980469 0
vn 0 0.9980469 0
vn 0 0.9980469 0
vn 0 0.9980469 0
vn 0 0.9980469 0
vn 0 0.9980469 0
vt 0.5 -0.875
vt 0.5 -0.125
vt 0.5 -0.875
vt 0.5 -0.125
vt 0.5 -0.875
vt 0.5 -0.125
vt 0.5 -0.875
vt 0.5 -0.125
vt 0.5 -0.875
vt 0.5 -0.125
vt 0.5 -0.875
vt 0.5 -0.125
vt 0.5 -0.875
vt 0.5 -0.125
vt 0.5 -0.875
vt 0.5 -0.125
f 1/1/1 2/2/2 3/3/3
f 2/2/2 4/4/4 3/3/3
f 3/3/3 4/4/4 5/5/5
f 4/4/4 6/6/6 5/5/5
f 5/5/5 6/6/6 7/7/7
f 6/6/6 8/8/8 7/7/7
f 7/7/7 8/8/8 9/9/9
f 8/8/8 10/10/10 9/9/9
f 9/9/9 10/10/10 11/11/11
f 10/10/10 12/12/12 11/11/11
f 11/11/11 12/12/12 13/13/13
f 12/12/12 14/14/14 13/13/13
f 13/13/13 14/14/14 15/15/15
f 14/14/14 16/16/16 15/15/15
v -7.382813 2 17.82813
v 7.382813 2 17.82813
v 17.82813 2 7.382813
v -17.82813 2 7.382813
vn 0 0.9980469 0
vn 0 0.9980469 0
vn 0 0.9980469 0
vn 0 0.9980469 0
vt 0.5 -0.875
vt 0.5 -0.875
vt 0.5 -0.875
vt 0.5 -0.875
f 17/17/17 18/18/18 19/19/19 20/20/20
g polygon1
usemtl c5house1a
v 21.75 34 9.007813
v 20.48438 41.30859 8.484375
v 8.484375 41.30859 20.48438
v 12.26953 34 21.60938
v -21.75 34 9.007813
v -12.17578 34 21.60938
v -8.484375 41.30859 20.48438
v -20.48438 41.30859 8.484375
v 21.75 4 9.007813
v 21.75 34 9.007813
v 12.26953 34 21.60938
v 12.26953 4 21.60938
v 12.26953 34 21.60938
v 9 34 21.60938
v 9 4 21.60938
v 12.26953 4 21.60938
v -9 4 21.60938
v -9 34 21.60938
v -12.17578 34 21.60938
v -12.17578 4 21.60938
v -12.17578 34 21.60938
v -21.75 34 9.007813
v -21.75 4 9.007813
v -12.17578 4 21.60938
v 21.75 34 9.007813
v 21.75 34 -9.007813
v 20.48438 41.30859 -8.484375
v 20.48438 41.30859 8.484375
v -8.484375 41.30859 20.48438
v -9 34 21.60938
v 9 34 21.60938
v 8.484375 41.30859 20.48438
v -20.48438 41.30859 -8.484375
v -21.75 34 -9.007813
v -21.75 34 9.007813
v -20.48438 41.30859 8.484375
v 21.75 4 9.007813
v 21.75 4 -9.007813
v 21.75 34 -9.007813
v 21.75 34 9.007813
v -21.75 34 -9.007813
v -21.75 4 -9.007813
v -21.75 4 9.007813
v -21.75 34 9.007813
vn 0.7148438 0.3164063 0.6230469
vn 0.7148438 0.3164063 0.6230469
vn 0.7148438 0.3164063 0.6230469
vn 0.7148438 0.3164063 0.6230469
vn -0.7148438 0.3125 0.6269531
vn -0.7148438 0.3125 0.6269531
vn -0.7148438 0.3125 0.6269531
vn -0.7148438 0.3125 0.6269531
vn 0.7988281 0 0.6015625
vn 0.7988281 0 0.6015625
vn 0.7988281 0 0.6015625
vn 0.7988281 0 0.6015625
vn 0 0 0.9980469
vn 0 0 0.9980469
vn 0 0 0.9980469
vn 0 0 0.9980469
vn 0 0 0.9980469
vn 0 0 0.9980469
vn 0 0 0.9980469
vn 0 0 0.9980469
vn -0.796875 0 0.6054688
vn -0.796875 0 0.6054688
vn -0.796875 0 0.6054688
vn -0.796875 0 0.6054688
vn 0.9863281 0.1699219 0
vn 0.9863281 0.1699219 0
vn 0.9863281 0.1699219 0
vn 0.9863281 0.1699219 0
vn 0 0.1523438 0.9882813
vn 0 0.1523438 0.9882813
vn 0 0.1523438 0.9882813
vn 0 0.1523438 0.9882813
vn -0.9863281 0.1699219 0
vn -0.9863281 0.1699219 0
vn -0.9863281 0.1699219 0
vn -0.9863281 0.1699219 0
vn 0.9980469 0 0
vn 0.9980469 0 0
vn 0.9980469 0 0
vn 0.9980469 0 0
vn -1 0 0
vn -1 0 0
vn -1 0 0
vn -1 0 0
vt 0 -0.25
vt 0 0
vt 0.46875 0
vt 0.3496094 -0.25
vt 0 -0.25
vt 0.3515625 -0.25
vt 0.46875 0
vt 0 0
vt -0.40625 -1
vt -0.40625 -0.25
vt -0.03320313 -0.25
vt -0.03320313 -1
vt -0.03320313 -0.25
vt 0.09375 -0.25
vt 0.09375 -1
vt -0.03320313 -1
vt 0.09375 -1
vt 0.09375 -0.25
vt -0.03125 -0.25
vt -0.03125 -1
vt -0.03125 -0.25
vt -0.40625 -0.25
vt -0.40625 -1
vt -0.03125 -1
vt 0 -0.25
vt 0.46875 -0.25
vt 0.46875 0
vt 0 0
vt 0.0625 0
vt 0.0625 -0.25
vt 0.4375 -0.25
vt 0.4375 0
vt 0.46875 0
vt 0.46875 -0.25
vt 0 -0.25
vt 0 0
vt -0.40625 -1
vt 0.09375 -1
vt 0.09375 -0.25
vt -0.40625 -0.25
vt 0.09375 -0.25
vt 0.09375 -1
vt -0.40625 -1
vt -0.40625 -0.25
f 21/21/21 22/22/22 23/23/23 24/24/24
f 25/25/25 26/26/26 27/27/27 28/28/28
f 29/29/29 30/30/30 31/31/31 32/32/32
f 33/33/33 34/34/34 35/35/35 36/36/36
f 37/37/37 38/38/38 39/39/39 40/40/40
f 41/41/41 42/42/42 43/43/43 44/44/44
f 45/45/45 46/46/46 47/47/47 48/48/48
f 49/49/49 50/50/50 51/51/51 52/52/52
f 53/53/53 54/54/54 55/55/55 56/56/56
f 57/57/57 58/58/58 59/59/59 60/60/60
f 61/61/61 62/62/62 63/63/63 64/64/64
v 8.484375 41.30859 20.48438
v 9 34 21.60938
v 12.26953 34 21.60938
v -9 34 21.60938
v -8.484375 41.30859 20.48438
v -12.17578 34 21.60938
vn 0 0.1523438 0.9882813
vn 0 0.1523438 0.9882813
vn 0 0.1523438 0.9882813
vn 0 0.1523438 0.9882813
vn 0 0.1523438 0.9882813
vn 0 0.1523438 0.9882813
vt 0.46875 0
vt 0.46875 -0.25
vt 0.3496094 -0.25
vt 0.46875 -0.25
vt 0.46875 0
vt 0.3515625 -0.25
f 65/65/65 66/66/66 67/67/67
f 68/68/68 69/69/69 70/70/70
g polygon2
usemtl c5house1b
v -1.828125 69.08594 4.410156
v 1.828125 69.08594 4.410156
v -4.410156 69.08594 1.828125
v 4.410156 69.08594 1.828125
v -4.410156 69.08594 -1.828125
v 4.410156 69.08594 -1.828125
v -1.828125 69.08594 -4.410156
v 1.828125 69.08594 -4.410156
vn 0 0.9980469 0
vn 0 0.9980469 0
vn 0 0.9980469 0
vn 0 0.9980469 0
vn 0 0.9980469 0
vn 0 0.9980469 0
vn 0 0.9980469 0
vn 0 0.9980469 0
vt 0.328125 -0.9882813
vt 0.421875 -0.9882813
vt 0.2617188 -0.9589844
vt 0.4882813 -0.9589844
vt 0.2617188 -0.9160156
vt 0.4882813 -0.9160156
vt 0.328125 -0.8867188
vt 0.421875 -0.8867188
f 71/71/71 72/72/72 73/73/73
f 72/72/72 74/74/74 73/73/73
f 73/73/73 74/74/74 75/75/75
f 74/74/74 76/76/76 75/75/75
f 75/75/75 76/76/76 77/77/77
f 76/76/76 78/78/78 77/77/77
v 14.23047 51.16797 11.66406
v 11.62109 51.16797 14.27344
v 13.30469 49.25 15.5625
v 15.52344 49.25 13.34766
v 11.80859 57.13672 9.347656
v 9.304688 57.13672 11.85156
v 11.69922 57.13672 14.24609
v 14.20313 57.13672 11.74219
v 11.69922 57.13672 14.24609
v 9.304688 57.13672 11.85156
v 9.246094 54.28516 11.89844
v 11.62109 51.16797 14.27344
v 14.20313 57.13672 11.74219
v 11.69922 57.13672 14.24609
v 11.62109 51.16797 14.27344
v 14.23047 51.16797 11.66406
v -15.52344 49.25 13.34766
v -13.30469 49.25 15.5625
v -11.62109 51.16797 14.27344
v -14.23047 51.16797 11.66406
v -14.20313 57.13672 11.74219
v -11.69922 57.13672 14.24609
v -9.304688 57.13672 11.85156
v -11.80859 57.13672 9.347656
v -11.62109 51.16797 14.27344
v -9.246094 54.28516 11.89844
v -9.304688 57.13672 11.85156
v -11.69922 57.13672 14.24609
v -14.23047 51.16797 11.66406
v -11.62109 51.16797 14.27344
v -11.69922 57.13672 14.24609
v -14.20313 57.13672 11.74219
v -23.20703 44.88281 -9.613281
v -20.48438 41.30859 -8.484375
v -20.48438 41.30859 8.484375
v -23.20703 44.88281 9.613281
v -23.20703 44.88281 9.613281
v -20.48438 41.30859 8.484375
v -8.484375 41.30859 20.48438
v -9.613281 44.88281 23.20703
v -9.613281 44.88281 23.20703
v -8.484375 41.30859 20.48438
v 8.484375 41.30859 20.48438
v 9.613281 44.88281 23.20703
v 9.613281 44.88281 23.20703
v 8.484375 41.30859 20.48438
v 20.48438 41.30859 8.484375
v 23.20703 44.88281 9.613281
v 20.48438 41.30859 8.484375
v 20.48438 41.30859 -8.484375
v 23.20703 44.88281 -9.613281
v 23.20703 44.88281 9.613281
v -4.410156 62.99609 1.828125
v -1.828125 62.99609 4.410156
v -1.828125 69.08594 4.410156
v -4.410156 69.08594 1.828125
v -4.410156 62.99609 -1.828125
v -4.410156 62.99609 1.828125
v -4.410156 69.08594 1.828125
v -4.410156 69.08594 -1.828125
v 4.410156 62.99609 1.828125
v 4.410156 62.99609 -1.828125
v 4.410156 69.08594 -1.828125
v 4.410156 69.08594 1.828125
v 1.828125 62.99609 4.410156
v 4.410156 62.99609 1.828125
v 4.410156 69.08594 1.828125
v 1.828125 69.08594 4.410156
v -1.828125 62.99609 4.410156
v 1.828125 62.99609 4.410156
v 1.828125 69.08594 4.410156
v -1.828125 69.08594 4.410156
v -4.410156 62.99609 1.828125
v -4.410156 62.99609 -1.828125
v -23.20703 44.88281 -9.613281
v -23.20703 44.88281 9.613281
v -23.20703 44.88281 -9.613281
v -4.410156 62.99609 -1.828125
v -1.828125 62.99609 -4.410156
v -9.613281 44.88281 -23.20703
v -1.828125 62.99609 4.410156
v -4.410156 62.99609 1.828125
v -23.20703 44.88281 9.613281
v -9.613281 44.88281 23.20703
v -9.613281 44.88281 -23.20703
v -1.828125 62.99609 -4.410156
v 1.828125 62.99609 -4.410156
v 9.613281 44.88281 -23.20703
v 1.828125 62.99609 4.410156
v -1.828125 62.99609 4.410156
v -9.613281 44.88281 23.20703
v 9.613281 44.88281 23.20703
v 9.613281 44.88281 -23.20703
v 1.828125 62.99609 -4.410156
v 4.410156 62.99609 -1.828125
v 23.20703 44.88281 -9.613281
v 4.410156 62.99609 1.828125
v 1.828125 62.99609 4.410156
v 9.613281 44.88281 23.20703
v 23.20703 44.88281 9.613281
v 23.20703 44.88281 -9.613281
v 4.410156 62.99609 -1.828125
v 4.410156 62.99609 1.828125
v 23.20703 44.88281 9.613281
v -9 4 21.60938
v -9 4 5.738281
v -9 34 5.738281
v -9 34 21.60938
v -9 4 5.738281
v 9 4 5.738281
v 9 34 5.738281
v -9 34 5.738281
v 9 4 5.738281
v 9 4 21.60938
v 9 34 21.60938
v 9 34 5.738281
v 9 4 21.60938
v 9 4 5.738281
v -9 4 5.738281
v -9 4 21.60938
vn 0.4902344 0.7207031 0.4902344
vn 0.4902344 0.7207031 0.4902344
vn 0.4902344 0.7207031 0.4902344
vn 0.4902344 0.7207031 0.4902344
vn 0 0.9980469 0
vn 0 0.9980469 0
vn 0 0.9980469 0
vn 0 0.9980469 0
vn -0.7070313 0 0.7070313
vn -0.7070313 0 0.7070313
vn -0.7070313 0 0.7070313
vn -0.7070313 0 0.7070313
vn 0.7070313 0 0.7070313
vn 0.7070313 0 0.7070313
vn 0.7070313 0 0.7070313
vn 0.7070313 0 0.7070313
vn -0.4902344 0.7207031 0.4902344
vn -0.4902344 0.7207031 0.4902344
vn -0.4902344 0.7207031 0.4902344
vn -0.4902344 0.7207031 0.4902344
vn 0 0.9980469 0
vn 0 0.9980469 0
vn 0 0.9980469 0
vn 0 0.9980469 0
vn 0.7070313 0 0.7070313
vn 0.7070313 0 0.7070313
vn 0.7070313 0 0.7070313
vn 0.7070313 0 0.7070313
vn -0.7070313 0 0.7070313
vn -0.7070313 0 0.7070313
vn -0.7070313 0 0.7070313
vn -0.7070313 0 0.7070313
vn -0.7949219 -0.6054688 0
vn -0.7949219 -0.6054688 0
vn -0.7949219 -0.6054688 0
vn -0.7949219 -0.6054688 0
vn -0.5625 -0.6054688 0.5625
vn -0.5625 -0.6054688 0.5625
vn -0.5625 -0.6054688 0.5625
vn -0.5625 -0.6054688 0.5625
vn 0 -0.6054688 0.7949219
vn 0 -0.6054688 0.7949219
vn 0 -0.6054688 0.7949219
vn 0 -0.6054688 0.7949219
vn 0.5625 -0.6054688 0.5625
vn 0.5625 -0.6054688 0.5625
vn 0.5625 -0.6054688 0.5625
vn 0.5625 -0.6054688 0.5625
vn 0.7949219 -0.6054688 0
vn 0.7949219 -0.6054688 0
vn 0.7949219 -0.6054688 0
vn 0.7949219 -0.6054688 0
vn -0.7070313 0 0.7070313
vn -0.7070313 0 0.7070313
vn -0.7070313 0 0.7070313
vn -0.7070313 0 0.7070313
vn -1 0 0
vn -1 0 0
vn -1 0 0
vn -1 0 0
vn 0.9980469 0 0
vn 0.9980469 0 0
vn 0.9980469 0 0
vn 0.9980469 0 0
vn 0.7070313 0 0.7070313
vn 0.7070313 0 0.7070313
vn 0.7070313 0 0.7070313
vn 0.7070313 0 0.7070313
vn 0 0 0.9980469
vn 0 0 0.9980469
vn 0 0 0.9980469
vn 0 0 0.9980469
vn -0.6933594 0.7207031 0
vn -0.6933594 0.7207031 0
vn -0.6933594 0.7207031 0
vn -0.6933594 0.7207031 0
vn -0.4902344 0.7207031 -0.4902344
vn -0.4902344 0.7207031 -0.4902344
vn -0.4902344 0.7207031 -0.4902344
vn -0.4902344 0.7207031 -0.4902344
vn -0.4902344 0.7207031 0.4902344
vn -0.4902344 0.7207031 0.4902344
vn -0.4902344 0.7207031 0.4902344
vn -0.4902344 0.7207031 0.4902344
vn 0 0.7207031 -0.6933594
vn 0 0.7207031 -0.6933594
vn 0 0.7207031 -0.6933594
vn 0 0.7207031 -0.6933594
vn 0 0.7207031 0.6933594
vn 0 0.7207031 0.6933594
vn 0 0.7207031 0.6933594
vn 0 0.7207031 0.6933594
vn 0.4902344 0.7207031 -0.4902344
vn 0.4902344 0.7207031 -0.4902344
vn 0.4902344 0.7207031 -0.4902344
vn 0.4902344 0.7207031 -0.4902344
vn 0.4902344 0.7207031 0.4902344
vn 0.4902344 0.7207031 0.4902344
vn 0.4902344 0.7207031 0.4902344
vn 0.4902344 0.7207031 0.4902344
vn 0.6933594 0.7207031 0
vn 0.6933594 0.7207031 0
vn 0.6933594 0.7207031 0
vn 0.6933594 0.7207031 0
vn 0.9980469 0 0
vn 0.9980469 0 0
vn 0.9980469 0 0
vn 0.9980469 0 0
vn 0 0 0.9980469
vn 0 0 0.9980469
vn 0 0 0.9980469
vn 0 0 0.9980469
vn -1 0 0
vn -1 0 0
vn -1 0 0
vn -1 0 0
vn 0 0.9980469 0
vn 0 0.9980469 0
vn 0 0.9980469 0
vn 0 0.9980469 0
vt 0.2617188 -0.7558594
vt 0.4882813 -0.7558594
vt 0.4882813 -0.8710938
vt 0.2617188 -0.8691406
vt 0.28125 -0.890625
vt 0.46875 -0.890625
vt 0.46875 -0.984375
vt 0.28125 -0.984375
vt 0.01171875 -0.7539063
vt 0.2304688 -0.7558594
vt 0.2382813 -0.8691406
vt 0.0078125 -0.9960938
vt 0.01171875 -0.7539063
vt 0.2304688 -0.7558594
vt 0.2421875 -0.9960938
vt 0.0078125 -0.9960938
vt 0.2617188 -0.8691406
vt 0.4882813 -0.8710938
vt 0.4882813 -0.7558594
vt 0.2617188 -0.7558594
vt 0.28125 -0.984375
vt 0.46875 -0.984375
vt 0.46875 -0.890625
vt 0.28125 -0.890625
vt 0.0078125 -0.9960938
vt 0.2382813 -0.8691406
vt 0.2304688 -0.7558594
vt 0.01171875 -0.7539063
vt 0.0078125 -0.9960938
vt 0.2421875 -0.9960938
vt 0.2304688 -0.7558594
vt 0.01171875 -0.7539063
vt 0 -0.59375
vt 0 -0.640625
vt 1 -0.640625
vt 1 -0.59375
vt 0 -0.59375
vt 0 -0.640625
vt 1 -0.640625
vt 1 -0.59375
vt 0 -0.59375
vt 0 -0.640625
vt 1 -0.640625
vt 1 -0.59375
vt 0 -0.59375
vt 0 -0.640625
vt 1 -0.640625
vt 1 -0.59375
vt 0 -0.640625
vt 1 -0.640625
vt 1 -0.59375
vt 0 -0.59375
vt 0 -1
vt 0.234375 -0.9941406
vt 0.2421875 -0.7539063
vt 0.01171875 -0.7558594
vt 0 -1
vt 0.234375 -0.9941406
vt 0.2421875 -0.7539063
vt 0.01171875 -0.7558594
vt 0 -1
vt 0.234375 -0.9941406
vt 0.2421875 -0.7539063
vt 0.01171875 -0.7558594
vt 0 -1
vt 0.234375 -0.9941406
vt 0.2421875 -0.7539063
vt 0.01171875 -0.7558594
vt 0 -1
vt 0.234375 -0.9941406
vt 0.2421875 -0.7539063
vt 0.01171875 -0.7558594
vt 0.7578125 -0.625
vt 0.5703125 -0.625
vt 0.2578125 -0.01171875
vt 1.070313 -0.01171875
vt 1.070313 -0.01171875
vt 0.7578125 -0.625
vt 0.5703125 -0.625
vt 0.2578125 -0.01171875
vt 0.7578125 -0.625
vt 0.5703125 -0.625
vt 0.2578125 -0.01171875
vt 1.070313 -0.01171875
vt 1.070313 -0.01171875
vt 0.7578125 -0.625
vt 0.5703125 -0.625
vt 0.2578125 -0.01171875
vt 0.7578125 -0.625
vt 0.5703125 -0.625
vt 0.2578125 -0.01171875
vt 1.070313 -0.01171875
vt 1.070313 -0.01171875
vt 0.7578125 -0.625
vt 0.5703125 -0.625
vt 0.2578125 -0.01171875
vt 0.7578125 -0.625
vt 0.5703125 -0.625
vt 0.2578125 -0.01171875
vt 1.070313 -0.01171875
vt 1.070313 -0.01171875
vt 0.7578125 -0.625
vt 0.5703125 -0.625
vt 0.2578125 -0.01171875
vt 0.015625 -0.7421875
vt 0.515625 -0.7421875
vt 0.5117188 -0.6621094
vt 0.0078125 -0.6621094
vt 0.515625 -0.7421875
vt 0.9882813 -0.7421875
vt 0.9882813 -0.6640625
vt 0.5117188 -0.6621094
vt 0.515625 -0.7421875
vt 0.015625 -0.7421875
vt 0.0078125 -0.6621094
vt 0.5117188 -0.6621094
vt 0.984375 -0.9941406
vt 0.9882813 -0.7421875
vt 0.515625 -0.7421875
vt 0.5117188 -0.9960938
f 79/79/79 80/80/80 81/81/81 82/82/82
f 83/83/83 84/84/84 85/85/85 86/86/86
f 87/87/87 88/88/88 89/89/89 90/90/90
f 91/91/91 92/92/92 93/93/93 94/94/94
f 95/95/95 96/96/96 97/97/97 98/98/98
f 99/99/99 100/100/100 101/101/101 102/102/102
f 103/103/103 104/104/104 105/105/105 106/106/106
f 107/107/107 108/108/108 109/109/109 110/110/110
f 111/111/111 112/112/112 113/113/113 114/114/114
f 115/115/115 116/116/116 117/117/117 118/118/118
f 119/119/119 120/120/120 121/121/121 122/122/122
f 123/123/123 124/124/124 125/125/125 126/126/126
f 127/127/127 128/128/128 129/129/129 130/130/130
f 131/131/131 132/132/132 133/133/133 134/134/134
f 135/135/135 136/136/136 137/137/137 138/138/138
f 139/139/139 140/140/140 141/141/141 142/142/142
f 143/143/143 144/144/144 145/145/145 146/146/146
f 147/147/147 148/148/148 149/149/149 150/150/150
f 151/151/151 152/152/152 153/153/153 154/154/154
f 155/155/155 156/156/156 157/157/157 158/158/158
f 159/159/159 160/160/160 161/161/161 162/162/162
f 163/163/163 164/164/164 165/165/165 166/166/166
f 167/167/167 168/168/168 169/169/169 170/170/170
f 171/171/171 172/172/172 173/173/173 174/174/174
f 175/175/175 176/176/176 177/177/177 178/178/178
f 179/179/179 180/180/180 181/181/181 182/182/182
f 183/183/183 184/184/184 185/185/185 186/186/186
f 187/187/187 188/188/188 189/189/189 190/190/190
f 191/191/191 192/192/192 193/193/193 194/194/194
f 195/195/195 196/196/196 197/197/197 198/198/198
