# Wavefront OBJ file
# Exported by Maverick Model 3D 1.3.12
# Sat Dec 10 07:34:46 2022

mtllib frog.mtl

# 57 Vertices
v 0.0 4.468302 0.977384
v 0.0 3.931525 -0.395853
v -0.852661 4.687388 0.977384
v 0.0 3.219466 1.988367
v -1.495972 2.90271 0.789356
v -2.051612 2.598351 -0.736863
v -2.125536 2.417455 0.448747
v 0.0 2.828379 1.892507
v -2.455239 1.31773 1.411163
v -1.457013 0.802217 -0.678725
v -1.788329 1.575115 1.360045
v 0.0 0.310599 -1.898441
v -0.979415 0.521805 1.055971
v 0.0 1.518233 2.251461
v 0.979415 0.521806 1.055971
v -0.978804 1.902065 -2.580537
v 0.0 1.902064 -3.01436
v -3.76243 2.988976 -0.657886
v -3.189045 2.152744 -0.850921
v -3.239081 4.268414 -0.803121
v -2.362999 3.691392 -2.001023
v -3.091706 2.514311 -2.310081
v -3.216934 1.124045 -0.834389
v -3.102313 0.032929 -1.488767
v -4.298852 0.032853 -0.424426
v -1.276909 0.034984 -0.587099
v -4.429756 0.034908 0.18734
v -2.010218 0.99756 1.226995
v -2.469425 1.248314 0.590773
v -2.441118 1.01289 1.905265
v -3.215067 0.496341 1.234362
v -2.046659 0.024485 2.078293
v -2.91571 0.259007 1.601803
v 0.852661 4.687388 0.977384
v 1.495972 2.90271 0.789356
v 2.125536 2.417455 0.448747
v 2.051612 2.598351 -0.736863
v 1.788329 1.575115 1.360044
v 1.457013 0.802217 -0.678725
v 2.455238 1.31773 1.411163
v 0.978805 1.902065 -2.580537
v 3.76243 2.988976 -0.657886
v 3.189045 2.152744 -0.850921
v 3.239081 4.268413 -0.803121
v 3.091706 2.514311 -2.310081
v 2.362999 3.691392 -2.001023
v 3.216934 1.124045 -0.83439
v 4.298852 0.032853 -0.424426
v 3.102313 0.03293 -1.488767
v 1.276909 0.034984 -0.587099
v 4.429756 0.034908 0.18734
v 2.010218 0.99756 1.226995
v 2.469425 1.248314 0.590773
v 2.441118 1.01289 1.905264
v 3.215067 0.496341 1.234361
v 2.046659 0.024485 2.078292
v 2.91571 0.259007 1.601803

# 264 Texture Coordinates
vt 0.6903 0.9796
vt 0.4748 0.8133
vt 0.8136 0.9214
vt 0.9742 0.889
vt 0.8136 0.9214
vt 0.9742 0.6847
vt 0.6892 0.6319
vt 0.3614 0.6191
vt 0.4869 0.5499
vt 0.8136 0.9214
vt 0.3614 0.6191
vt 0.6892 0.6319
vt 0.9742 0.6847
vt 0.6892 0.6319
vt 0.9742 0.6207
vt 0.1827 0.9694
vt 0.1151 0.9821
vt 0.1711 0.9133
vt 0.4869 0.5499
vt 0.3699 0.3112
vt 0.6325 0.4154
vt 0.3614 0.6191
vt 0.3699 0.3112
vt 0.4869 0.5499
vt 0.6892 0.6319
vt 0.6325 0.4154
vt 0.9742 0.6207
vt 0.3699 0.3112
vt 0.3077 0.2404
vt 0.7873 0.243
vt 0.3699 0.3112
vt 0.7873 0.243
vt 0.6325 0.4154
vt 0.6325 0.4154
vt 0.7873 0.243
vt 0.9742 0.4063
vt 0.6325 0.4154
vt 0.9742 0.4063
vt 0.9742 0.6207
vt 0.9742 0.4063
vt 0.7873 0.243
vt 0.7875 0.2432
vt 0.7873 0.243
vt 0.3077 0.2404
vt 0.7875 0.2432
vt 0.4748 0.8133
vt 0.2911 0.6227
vt 0.3614 0.6191
vt 0.2411 0.6227
vt 0.2911 0.6227
vt 0.4748 0.8133
vt 0.0047 0.4055
vt 0.0775 0.3009
vt 0.2201 0.3566
vt 0.0047 0.4055
vt 0.2201 0.3566
vt 0.0694 0.5657
vt 0.2201 0.3566
vt 0.0775 0.3009
vt 0.2857 0.1967
vt 0.0694 0.5657
vt 0.18 0.4935
vt 0.0894 0.3461
vt 0.18 0.4935
vt 0.0694 0.5657
vt 0.2201 0.3566
vt 0.0452 0.2451
vt 0.0894 0.3461
vt 0.2754 0.3216
vt 0.0894 0.3461
vt 0.0047 0.4055
vt 0.0694 0.5657
vt 0.0452 0.2451
vt 0.0227 0.0328
vt 0.0222 0.0315
vt 0.4738 0.0372
vt 0.2857 0.1967
vt 0.0058 0.0318
vt 0.0058 0.0318
vt 0.0452 0.2451
vt 0.0222 0.0315
vt 0.2518 0.9443
vt 0.1827 0.9694
vt 0.1711 0.9133
vt 0.2518 0.9443
vt 0.1711 0.9133
vt 0.2484 0.9178
vt 0.1151 0.9821
vt 0.1092 0.9608
vt 0.1711 0.9133
vt 0.215 0.8565
vt 0.1711 0.9133
vt 0.0225 0.738
vt 0.1711 0.9133
vt 0.215 0.8565
vt 0.2484 0.9178
vt 0.0894 0.3461
vt 0.0775 0.3009
vt 0.0047 0.4055
vt 0.215 0.8565
vt 0.319 0.7388
vt 0.2484 0.9178
vt 0.1118 0.7359
vt 0.319 0.7388
vt 0.215 0.8565
vt 0.0225 0.738
vt 0.1118 0.7359
vt 0.215 0.8565
vt 0.8136 0.9214
vt 0.6892 0.6319
vt 0.9742 0.6847
vt 0.4748 0.8133
vt 0.3614 0.6191
vt 0.8136 0.9214
vt 0.0225 0.738
vt 0.1092 0.9608
vt 0.2484 0.9178
vt 0.1092 0.9608
vt 0.0225 0.738
vt 0.1711 0.9133
vt 0.0452 0.2451
vt 0.0058 0.0318
vt 0.2857 0.1967
vt 0.2754 0.3216
vt 0.18 0.4935
vt 0.2201 0.3566
vt 0.18 0.4935
vt 0.2754 0.3216
vt 0.0894 0.3461
vt 0.0894 0.3461
vt 0.0452 0.2451
vt 0.0775 0.3009
vt 0.0775 0.3009
vt 0.0452 0.2451
vt 0.2857 0.1967
vt 0.6903 0.9796
vt 0.8137 0.9212
vt 0.4748 0.8133
vt 0.9742 0.889
vt 0.9742 0.6847
vt 0.8137 0.9212
vt 0.6889 0.6318
vt 0.4863 0.5495
vt 0.3614 0.6189
vt 0.4748 0.8133
vt 0.8137 0.9212
vt 0.3614 0.6189
vt 0.9742 0.6847
vt 0.9742 0.6207
vt 0.6889 0.6318
vt 0.6889 0.6318
vt 0.9742 0.6207
vt 0.6322 0.4152
vt 0.4863 0.5495
vt 0.6322 0.4152
vt 0.3701 0.3114
vt 0.3614 0.6189
vt 0.4863 0.5495
vt 0.3701 0.3114
vt 0.1716 0.9143
vt 0.1835 0.9698
vt 0.252 0.9424
vt 0.3701 0.3114
vt 0.7875 0.2432
vt 0.3077 0.2404
vt 0.3701 0.3114
vt 0.6322 0.4152
vt 0.7875 0.2432
vt 0.6322 0.4152
vt 0.9742 0.4063
vt 0.7875 0.2432
vt 0.6322 0.4152
vt 0.9742 0.6207
vt 0.9742 0.4063
vt 0.4748 0.8133
vt 0.3614 0.6189
vt 0.2911 0.6221
vt 0.2411 0.6227
vt 0.4748 0.8133
vt 0.2911 0.6221
vt 0.0048 0.4054
vt 0.2202 0.3565
vt 0.0776 0.3007
vt 0.0048 0.4054
vt 0.0695 0.5655
vt 0.2202 0.3565
vt 0.2202 0.3565
vt 0.2858 0.1965
vt 0.0776 0.3007
vt 0.0695 0.5655
vt 0.0895 0.346
vt 0.1801 0.4933
vt 0.1801 0.4933
vt 0.2202 0.3565
vt 0.0695 0.5655
vt 0.0453 0.2449
vt 0.2755 0.3215
vt 0.0895 0.346
vt 0.0895 0.346
vt 0.0695 0.5655
vt 0.0048 0.4054
vt 0.0453 0.2449
vt 0.0223 0.0313
vt 0.0228 0.0327
vt 0.4739 0.037
vt 0.0059 0.0316
vt 0.2858 0.1965
vt 0.0059 0.0316
vt 0.0223 0.0313
vt 0.0453 0.2449
vt 0.1835 0.9698
vt 0.1716 0.9143
vt 0.1159 0.9809
vt 0.252 0.9424
vt 0.2479 0.9167
vt 0.1716 0.9143
vt 0.1159 0.9809
vt 0.1716 0.9143
vt 0.1095 0.9595
vt 0.2152 0.8568
vt 0.0228 0.7371
vt 0.1716 0.9143
vt 0.1716 0.9143
vt 0.2479 0.9167
vt 0.2152 0.8568
vt 0.0895 0.346
vt 0.0048 0.4054
vt 0.0776 0.3007
vt 0.2152 0.8568
vt 0.2479 0.9167
vt 0.3194 0.7373
vt 0.1122 0.7375
vt 0.2152 0.8568
vt 0.3194 0.7373
vt 0.0228 0.7371
vt 0.2152 0.8568
vt 0.1122 0.7375
vt 0.8137 0.9212
vt 0.9742 0.6847
vt 0.6889 0.6318
vt 0.3614 0.6189
vt 0.8137 0.9212
vt 0.6889 0.6318
vt 0.0228 0.7371
vt 0.2479 0.9167
vt 0.1095 0.9595
vt 0.1095 0.9595
vt 0.1716 0.9143
vt 0.0228 0.7371
vt 0.0453 0.2449
vt 0.2858 0.1965
vt 0.0059 0.0316
vt 0.2755 0.3215
vt 0.2202 0.3565
vt 0.1801 0.4933
vt 0.1801 0.4933
vt 0.0895 0.346
vt 0.2755 0.3215
vt 0.0895 0.346
vt 0.0776 0.3007
vt 0.0453 0.2449
vt 0.0776 0.3007
vt 0.2858 0.1965
vt 0.0453 0.2449

# 264 Vertex Normals
vn -0.0 0.965279 0.261219
vn -0.0 0.833319 -0.552793
vn -0.474961 0.840659 0.2602
vn -0.0 0.965279 0.261219
vn -0.474961 0.840659 0.2602
vn -0.0 0.243251 0.969963
vn -0.657342 0.396218 0.641025
vn -0.384981 0.709271 0.590529
vn -0.971128 0.220384 0.091328
vn -0.474961 0.840659 0.2602
vn -0.384981 0.709271 0.590529
vn -0.657342 0.396218 0.641025
vn -0.0 0.243251 0.969963
vn -0.657342 0.396218 0.641025
vn 0.0 0.195756 0.980653
vn -0.657342 0.396218 0.641025
vn -0.971128 0.220384 0.091328
vn -0.490991 0.607446 0.62445
vn -0.971128 0.220384 0.091328
vn -0.594761 -0.290113 0.749729
vn -0.558177 -0.138583 0.818067
vn -0.384981 0.709271 0.590529
vn -0.594761 -0.290113 0.749729
vn -0.971128 0.220384 0.091328
vn -0.657342 0.396218 0.641025
vn -0.558177 -0.138583 0.818067
vn 0.0 0.195756 0.980653
vn -0.594761 -0.290113 0.749729
vn 0.0 -0.999934 -0.011483
vn -0.345772 -0.871954 0.34661
vn -0.594761 -0.290113 0.749729
vn -0.345772 -0.871954 0.34661
vn -0.558177 -0.138583 0.818067
vn -0.558177 -0.138583 0.818067
vn -0.345772 -0.871954 0.34661
vn 0.0 -0.32343 0.946252
vn -0.558177 -0.138583 0.818067
vn 0.0 -0.32343 0.946252
vn 0.0 0.195756 0.980653
vn 0.0 -0.32343 0.946252
vn -0.345772 -0.871954 0.34661
vn 0.345772 -0.871953 0.34661
vn -0.345772 -0.871954 0.34661
vn 0.0 -0.999934 -0.011483
vn 0.345772 -0.871953 0.34661
vn -0.0 0.833319 -0.552793
vn -0.063713 0.55205 -0.831373
vn -0.384981 0.709271 0.590529
vn -0.0 0.790398 -0.612594
vn -0.063713 0.55205 -0.831373
vn -0.0 0.833319 -0.552793
vn -0.757173 -0.172981 0.629894
vn -0.583551 -0.205824 0.78556
vn -0.384981 0.709271 0.590529
vn -0.757173 -0.172981 0.629894
vn -0.384981 0.709271 0.590529
vn -0.35864 0.924511 0.129059
vn -0.384981 0.709271 0.590529
vn -0.583551 -0.205824 0.78556
vn -0.594761 -0.290113 0.749729
vn -0.35864 0.924511 0.129059
vn 0.412187 0.795774 -0.443672
vn -0.768712 -0.02018 -0.639276
vn 0.412187 0.795774 -0.443672
vn -0.35864 0.924511 0.129059
vn -0.384981 0.709271 0.590529
vn -0.931422 0.359325 0.057775
vn -0.768712 -0.02018 -0.639276
vn -0.063713 0.55205 -0.831373
vn -0.768712 -0.02018 -0.639276
vn -0.757173 -0.172981 0.629894
vn -0.35864 0.924511 0.129059
vn -0.931422 0.359325 0.057775
vn -0.621648 0.353811 -0.698836
vn -0.712555 0.536729 -0.451872
vn 0.235086 0.169485 0.957084
vn -0.594761 -0.290113 0.749729
vn -0.201706 0.676546 0.708237
vn -0.201706 0.676546 0.708237
vn -0.931422 0.359325 0.057775
vn -0.712555 0.536729 -0.451872
vn -0.558177 -0.138583 0.818067
vn -0.657342 0.396218 0.641025
vn -0.490991 0.607446 0.62445
vn -0.558177 -0.138583 0.818067
vn -0.490991 0.607446 0.62445
vn 0.832523 -0.003043 0.553983
vn -0.971128 0.220384 0.091328
vn -0.910831 0.123832 -0.393768
vn -0.490991 0.607446 0.62445
vn -0.148033 0.526218 0.837365
vn -0.490991 0.607446 0.62445
vn -0.913879 0.327243 0.240286
vn -0.490991 0.607446 0.62445
vn -0.148033 0.526218 0.837365
vn 0.832523 -0.003043 0.553983
vn -0.768712 -0.02018 -0.639276
vn -0.583551 -0.205824 0.78556
vn -0.757173 -0.172981 0.629894
vn -0.148033 0.526218 0.837365
vn 0.202458 0.246702 0.947707
vn 0.832523 -0.003043 0.553983
vn -0.60815 0.064361 0.791209
vn 0.202458 0.246702 0.947707
vn -0.148033 0.526218 0.837365
vn -0.913879 0.327243 0.240286
vn -0.60815 0.064361 0.791209
vn -0.148033 0.526218 0.837365
vn -0.474961 0.840659 0.2602
vn -0.657342 0.396218 0.641025
vn -0.0 0.243251 0.969963
vn -0.0 0.833319 -0.552793
vn -0.384981 0.709271 0.590529
vn -0.474961 0.840659 0.2602
vn -0.913879 0.327243 0.240286
vn -0.910831 0.123832 -0.393768
vn 0.832523 -0.003043 0.553983
vn -0.910831 0.123832 -0.393768
vn -0.913879 0.327243 0.240286
vn -0.490991 0.607446 0.62445
vn -0.931422 0.359325 0.057775
vn -0.201706 0.676546 0.708237
vn -0.594761 -0.290113 0.749729
vn -0.063713 0.55205 -0.831373
vn 0.412187 0.795774 -0.443672
vn -0.384981 0.709271 0.590529
vn 0.412187 0.795774 -0.443672
vn -0.063713 0.55205 -0.831373
vn -0.768712 -0.02018 -0.639276
vn -0.768712 -0.02018 -0.639276
vn -0.931422 0.359325 0.057775
vn -0.583551 -0.205824 0.78556
vn -0.583551 -0.205824 0.78556
vn -0.931422 0.359325 0.057775
vn -0.594761 -0.290113 0.749729
vn -0.0 0.965279 0.261219
vn 0.474961 0.840659 0.2602
vn -0.0 0.833319 -0.552793
vn -0.0 0.965279 0.261219
vn -0.0 0.243251 0.969963
vn 0.474961 0.840659 0.2602
vn 0.657342 0.396218 0.641025
vn 0.971128 0.220384 0.091328
vn 0.384981 0.709271 0.590528
vn -0.0 0.833319 -0.552793
vn 0.474961 0.840659 0.2602
vn 0.384981 0.709271 0.590528
vn -0.0 0.243251 0.969963
vn 0.0 0.195756 0.980653
vn 0.657342 0.396218 0.641025
vn 0.657342 0.396218 0.641025
vn 0.0 0.195756 0.980653
vn 0.558177 -0.138583 0.818067
vn 0.971128 0.220384 0.091328
vn 0.558177 -0.138583 0.818067
vn 0.594761 -0.290113 0.749729
vn 0.384981 0.709271 0.590528
vn 0.971128 0.220384 0.091328
vn 0.594761 -0.290113 0.749729
vn 0.49099 0.607446 0.624451
vn 0.657342 0.396218 0.641025
vn 0.558177 -0.138583 0.818067
vn 0.594761 -0.290113 0.749729
vn 0.345772 -0.871953 0.34661
vn 0.0 -0.999934 -0.011483
vn 0.594761 -0.290113 0.749729
vn 0.558177 -0.138583 0.818067
vn 0.345772 -0.871953 0.34661
vn 0.558177 -0.138583 0.818067
vn 0.0 -0.32343 0.946252
vn 0.345772 -0.871953 0.34661
vn 0.558177 -0.138583 0.818067
vn 0.0 0.195756 0.980653
vn 0.0 -0.32343 0.946252
vn -0.0 0.833319 -0.552793
vn 0.384981 0.709271 0.590528
vn 0.063713 0.55205 -0.831373
vn -0.0 0.790398 -0.612594
vn -0.0 0.833319 -0.552793
vn 0.063713 0.55205 -0.831373
vn 0.757173 -0.17298 0.629894
vn 0.384981 0.709271 0.590528
vn 0.583551 -0.205824 0.78556
vn 0.757173 -0.17298 0.629894
vn 0.35864 0.924511 0.129059
vn 0.384981 0.709271 0.590528
vn 0.384981 0.709271 0.590528
vn 0.594761 -0.290113 0.749729
vn 0.583551 -0.205824 0.78556
vn 0.35864 0.924511 0.129059
vn 0.768713 -0.02018 -0.639276
vn -0.412187 0.795775 -0.443672
vn -0.412187 0.795775 -0.443672
vn 0.384981 0.709271 0.590528
vn 0.35864 0.924511 0.129059
vn 0.931423 0.359325 0.057774
vn 0.063713 0.55205 -0.831373
vn 0.768713 -0.02018 -0.639276
vn 0.768713 -0.02018 -0.639276
vn 0.35864 0.924511 0.129059
vn 0.757173 -0.17298 0.629894
vn 0.931423 0.359325 0.057774
vn 0.712555 0.536729 -0.451872
vn 0.621648 0.35381 -0.698836
vn -0.235086 0.169485 0.957084
vn 0.201706 0.676546 0.708237
vn 0.594761 -0.290113 0.749729
vn 0.201706 0.676546 0.708237
vn 0.712555 0.536729 -0.451872
vn 0.931423 0.359325 0.057774
vn 0.657342 0.396218 0.641025
vn 0.49099 0.607446 0.624451
vn 0.971128 0.220384 0.091328
vn 0.558177 -0.138583 0.818067
vn -0.832523 -0.003043 0.553983
vn 0.49099 0.607446 0.624451
vn 0.971128 0.220384 0.091328
vn 0.49099 0.607446 0.624451
vn 0.910831 0.123833 -0.393767
vn 0.148033 0.526218 0.837365
vn 0.913879 0.327244 0.240286
vn 0.49099 0.607446 0.624451
vn 0.49099 0.607446 0.624451
vn -0.832523 -0.003043 0.553983
vn 0.148033 0.526218 0.837365
vn 0.768713 -0.02018 -0.639276
vn 0.757173 -0.17298 0.629894
vn 0.583551 -0.205824 0.78556
vn 0.148033 0.526218 0.837365
vn -0.832523 -0.003043 0.553983
vn -0.202458 0.246702 0.947707
vn 0.60815 0.064362 0.791209
vn 0.148033 0.526218 0.837365
vn -0.202458 0.246702 0.947707
vn 0.913879 0.327244 0.240286
vn 0.148033 0.526218 0.837365
vn 0.60815 0.064362 0.791209
vn 0.474961 0.840659 0.2602
vn -0.0 0.243251 0.969963
vn 0.657342 0.396218 0.641025
vn 0.384981 0.709271 0.590528
vn 0.474961 0.840659 0.2602
vn 0.657342 0.396218 0.641025
vn 0.913879 0.327244 0.240286
vn -0.832523 -0.003043 0.553983
vn 0.910831 0.123833 -0.393767
vn 0.910831 0.123833 -0.393767
vn 0.49099 0.607446 0.624451
vn 0.913879 0.327244 0.240286
vn 0.931423 0.359325 0.057774
vn 0.594761 -0.290113 0.749729
vn 0.201706 0.676546 0.708237
vn 0.063713 0.55205 -0.831373
vn 0.384981 0.709271 0.590528
vn -0.412187 0.795775 -0.443672
vn -0.412187 0.795775 -0.443672
vn 0.768713 -0.02018 -0.639276
vn 0.063713 0.55205 -0.831373
vn 0.768713 -0.02018 -0.639276
vn 0.583551 -0.205824 0.78556
vn 0.931423 0.359325 0.057774
vn 0.583551 -0.205824 0.78556
vn 0.594761 -0.290113 0.749729
vn 0.931423 0.359325 0.057774

# frog, 88 grouped triangles

usemtl frog
o frog
g frog

f 1/1/1 2/2/2 3/3/3
f 1/4/4 3/5/5 4/6/6
f 5/7/7 6/8/8 7/9/9
f 3/10/10 6/11/11 5/12/12
f 4/13/13 5/14/14 8/15/15
f 5/16/16 7/17/17 9/18/18
f 7/19/19 10/20/20 11/21/21
f 6/22/22 10/23/23 7/24/24
f 5/25/25 11/26/26 8/27/27
f 10/28/28 12/29/29 13/30/30
f 10/31/31 13/32/32 11/33/33
f 11/34/34 13/35/35 14/36/36
f 11/37/37 14/38/38 8/39/39
f 14/40/40 13/41/41 15/42/42
f 13/43/43 12/44/44 15/45/45
f 2/46/46 16/47/47 6/48/48
f 17/49/49 16/50/50 2/51/51
f 18/52/52 19/53/53 6/54/54
f 18/55/55 6/56/56 20/57/57
f 6/58/58 19/59/59 10/60/60
f 20/61/61 21/62/62 22/63/63
f 21/64/64 20/65/65 6/66/66
f 23/67/67 22/68/68 16/69/69
f 22/70/70 18/71/71 20/72/72
f 23/73/73 24/74/74 25/75/75
f 26/76/76 10/77/77 27/78/78
f 27/79/79 23/80/80 25/81/81
f 11/82/82 5/83/83 9/84/84
f 11/85/85 9/86/86 28/87/87
f 7/88/88 29/89/89 9/90/90
f 30/91/91 9/92/92 31/93/93
f 9/94/94 30/95/95 28/96/96
f 22/97/97 19/98/98 18/99/99
f 30/100/100 32/101/101 28/102/102
f 33/103/103 32/104/104 30/105/105
f 31/106/106 33/107/107 30/108/108
f 3/109/109 5/110/110 4/111/111
f 2/112/112 6/113/113 3/114/114
f 31/115/115 29/116/116 28/117/117
f 29/118/118 31/119/119 9/120/120
f 23/121/121 27/122/122 10/123/123
f 16/124/124 21/125/125 6/126/126
f 21/127/127 16/128/128 22/129/129
f 22/130/130 23/131/131 19/132/132
f 19/133/133 23/134/134 10/135/135
f 1/136/136 34/137/137 2/138/138
f 1/139/139 4/140/140 34/141/141
f 35/142/142 36/143/143 37/144/144
f 2/145/145 34/146/146 37/147/147
f 4/148/148 8/149/149 35/150/150
f 35/151/151 8/152/152 38/153/153
f 36/154/154 38/155/155 39/156/156
f 37/157/157 36/158/158 39/159/159
f 40/160/160 35/161/161 38/162/162
f 39/163/163 15/164/164 12/165/165
f 39/166/166 38/167/167 15/168/168
f 38/169/169 14/170/170 15/171/171
f 38/172/172 8/173/173 14/174/174
f 2/175/175 37/176/176 41/177/177
f 17/178/178 2/179/179 41/180/180
f 42/181/181 37/182/182 43/183/183
f 42/184/184 44/185/185 37/186/186
f 37/187/187 39/188/188 43/189/189
f 44/190/190 45/191/191 46/192/192
f 46/193/193 37/194/194 44/195/195
f 47/196/196 41/197/197 45/198/198
f 45/199/199 44/200/200 42/201/201
f 47/202/202 48/203/203 49/204/204
f 50/205/205 51/206/206 39/207/207
f 51/208/208 48/209/209 47/210/210
f 35/211/211 40/212/212 36/213/213
f 38/214/214 52/215/215 40/216/216
f 36/217/217 40/218/218 53/219/219
f 54/220/220 55/221/221 40/222/222
f 40/223/223 52/224/224 54/225/225
f 45/226/226 42/227/227 43/228/228
f 54/229/229 52/230/230 56/231/231
f 57/232/232 54/233/233 56/234/234
f 55/235/235 54/236/236 57/237/237
f 34/238/238 4/239/239 35/240/240
f 37/241/241 34/242/242 35/243/243
f 55/244/244 52/245/245 53/246/246
f 53/247/247 40/248/248 55/249/249
f 47/250/250 39/251/251 51/252/252
f 41/253/253 37/254/254 46/255/255
f 46/256/256 45/257/257 41/258/258
f 45/259/259 43/260/260 47/261/261
f 43/262/262 39/263/263 47/264/264
