# Blender v2.76 (sub 0) OBJ File: 'ExportAll.blend'
# www.blender.org
mtllib Flat Screen TV.mtl
o polygon2.166
v -3.000000 3.000000 0.500000
v -3.000000 -0.000000 0.500000
v -2.250000 3.000000 0.500000
v -2.250000 -0.000000 0.500000
v -3.000000 0.000000 0.000000
v -3.000000 -0.000000 0.500000
v -3.000000 3.000000 0.000000
v -3.000000 3.000000 0.500000
v 3.000000 3.000000 0.000000
v 3.000000 3.000000 0.500000
v 3.000000 0.000000 0.000000
v 3.000000 -0.000000 0.500000
v 2.250000 -0.000000 0.500000
v 3.000000 -0.000000 0.500000
v 2.250000 3.000000 0.500000
v 3.000000 3.000000 0.500000
vt 0.570312 -0.030273
vt 0.570312 -0.964844
vt 0.996094 -0.030273
vt 0.996094 -0.964844
vt 0.203125 -0.964844
vt 0.203125 -0.030273
vn 0.000000 -0.000000 1.000000
vn -1.000000 0.000000 0.000000
vn 1.000000 0.000000 0.000000
usemtl Material1404
s 1
f 1/1/1 2/2/1 3/3/1
f 2/2/1 4/4/1 3/3/1
f 5/5/2 6/2/2 7/6/2
f 6/2/2 8/1/2 7/6/2
f 9/6/3 10/1/3 11/5/3
f 10/1/3 12/2/3 11/5/3
f 13/4/1 14/2/1 15/3/1
f 14/2/1 16/1/1 15/3/1
o polygon4.109
v -3.000000 3.000000 0.500000
v -2.250000 3.000000 0.500000
v -3.000000 3.000000 0.000000
v 2.250000 3.000000 0.500000
v 3.000000 3.000000 0.000000
v 3.000000 3.000000 0.500000
v -2.250000 -0.000000 0.500000
v 2.250000 -0.000000 0.500000
v -1.899902 0.300049 0.500000
v 1.899902 0.300049 0.500000
v 2.250000 -0.000000 0.500000
v 2.250000 3.000000 0.500000
v 1.899902 0.300049 0.500000
v 1.899902 2.699951 0.500000
v 2.250000 3.000000 0.500000
v -2.250000 3.000000 0.500000
v 1.899902 2.699951 0.500000
v -1.899902 2.699951 0.500000
v -1.899902 2.699951 0.500000
v -2.250000 3.000000 0.500000
v -1.899902 0.300049 0.500000
v -2.250000 -0.000000 0.500000
vt 0.034180 -0.777344
vt 0.150391 -0.777344
vt 0.034180 -0.693359
vt 0.849609 -0.777344
vt 0.965820 -0.693359
vt 0.965820 -0.777344
vt 0.013672 -0.386719
vt 0.986328 -0.386719
vt 0.081055 0.046875
vt 0.918945 0.046875
vt 0.985352 -0.699219
vt 0.014648 -0.699219
vt 0.885742 -0.986328
vt 0.114258 -0.986328
vt 0.985352 -0.351562
vt 0.014648 -0.351562
vt 0.985352 -0.636719
vt 0.014648 -0.636719
vn 0.000000 1.000000 0.000000
vn 0.000000 -0.000000 1.000000
usemtl Material1406
s 1
f 17/7/4 18/8/4 19/9/4
f 18/8/4 20/10/4 19/9/4
f 19/9/4 20/10/4 21/11/4
f 20/10/4 22/12/4 21/11/4
f 23/13/5 24/14/5 25/15/5
f 24/14/5 26/16/5 25/15/5
f 27/17/5 28/18/5 29/19/5
f 28/18/5 30/20/5 29/19/5
f 31/21/5 32/22/5 33/23/5
f 32/22/5 34/24/5 33/23/5
f 35/20/5 36/18/5 37/19/5
f 36/18/5 38/17/5 37/19/5
o polygon3.128
v -2.800049 2.800049 0.000000
v -3.000000 3.000000 0.000000
v 2.800049 2.800049 0.000000
v 3.000000 3.000000 0.000000
v -2.800049 0.000000 0.000000
v -3.000000 0.000000 0.000000
v -2.800049 2.800049 0.000000
v -3.000000 3.000000 0.000000
v -2.600098 2.600098 -0.500000
v -2.600098 0.199951 -0.500000
v -2.800049 2.800049 0.000000
v -2.800049 0.000000 0.000000
v 2.800049 0.000000 0.000000
v 2.600098 0.199951 -0.500000
v 2.800049 2.800049 0.000000
v 2.600098 2.600098 -0.500000
v 2.800049 2.800049 0.000000
v 3.000000 3.000000 0.000000
v 2.800049 0.000000 0.000000
v 3.000000 0.000000 0.000000
v 2.600098 2.600098 -0.500000
v -2.600098 2.600098 -0.500000
v 2.800049 2.800049 0.000000
v -2.800049 2.800049 0.000000
vt 1.981445 -0.390625
vt 2.043945 -0.007812
vt 0.019531 -0.390625
vt -0.056641 -0.007812
vt 1.000000 -0.007812
vt 1.000000 -0.355469
vt 0.000000 -0.007812
vt -0.068359 -0.355469
vt 0.954102 -1.035156
vt 0.042969 -1.035156
vt 1.027344 -0.394531
vt -0.030273 -0.394531
vt 0.000000 -0.355469
vt -0.074219 -0.007812
vt 0.057617 -0.980469
vt 0.942383 -0.980469
vt 0.023438 -0.441406
vt 0.976562 -0.441406
vn 0.000000 0.000000 -1.000000
vn -0.928500 0.000000 -0.371300
vn 0.928500 0.000000 -0.371300
vn 0.000000 0.928500 -0.371300
usemtl Material1405
s 1
f 39/25/6 40/26/6 41/27/6
f 40/26/6 42/28/6 41/27/6
f 43/29/6 44/30/6 45/31/6
f 44/30/6 46/32/6 45/31/6
f 47/33/7 48/34/7 49/35/7
f 48/34/7 50/36/7 49/35/7
f 51/36/8 52/34/8 53/35/8
f 52/34/8 54/33/8 53/35/8
f 55/37/6 56/38/6 57/30/6
f 56/38/6 58/29/6 57/30/6
f 59/39/9 60/40/9 61/41/9
f 60/40/9 62/42/9 61/41/9
o polygon0.197
v -2.600098 0.199951 -0.500000
v -2.600098 2.600098 -0.500000
v 2.600098 0.199951 -0.500000
v 2.600098 2.600098 -0.500000
vt 0.990234 -0.990234
vt 0.990234 -0.009766
vt 0.009766 -0.990234
vt 0.009766 -0.009766
vn 0.000000 0.000000 -1.000000
usemtl Material1407
s 1
f 63/43/10 64/44/10 65/45/10
f 64/44/10 66/46/10 65/45/10
o polygon1.194
v 1.899902 2.699951 0.500000
v -1.899902 2.699951 0.500000
v 1.899902 0.300049 0.500000
v -1.899902 0.300049 0.500000
vt 0.988281 -0.011719
vt 0.011719 -0.011719
vt 0.988281 -0.988281
vt 0.011719 -0.988281
vn 0.000000 -0.000000 1.000000
usemtl Material1408
s 1
f 67/47/11 68/48/11 69/49/11
f 68/48/11 70/50/11 69/49/11
