# Blender v2.79 (sub 0) OBJ File: ''
# www.blender.org
mtllib bird.mtl
o sphere6
v 2.175000 -0.474516 -10.381410
v -2.175000 -0.474516 -10.381410
v 1.272374 -1.806137 -7.393910
v -1.272374 -1.806136 -7.393909
vt 0.596760 0.465047
vt 0.426678 0.465047
vt 0.561468 0.589640
vt 0.461970 0.589640
vn 0.0000 0.9134 0.4071
usemtl material_3.002
s 1
f 1/1/1 2/2/1 3/3/1
f 2/2/1 4/4/1 3/3/1
o obj4
v 0.000000 -0.476019 5.430821
v 2.320298 1.293694 5.454908
v 0.000000 -0.273894 9.032969
v 0.000000 2.543333 6.779181
v -2.320298 1.293694 5.454908
v 1.272374 -1.218771 -7.767693
v 2.175000 -2.576323 -6.865803
v 0.000000 -2.616876 -8.445871
v -1.272375 -1.218771 -7.767693
v -2.175000 -2.576323 -6.865803
v -1.272374 -4.772454 -6.376663
v 1.272375 -4.772454 -6.376663
v -2.410000 6.507658 4.473299
v -0.000001 6.507658 5.744957
v 0.000000 7.552505 4.181237
v -1.844534 7.552505 2.336703
v -3.408255 6.507658 2.336703
v 0.000000 7.919403 2.336703
v 0.000000 -1.353696 0.492168
v 1.844534 -1.353696 2.336702
v 0.000000 -1.720596 2.336702
v 2.410000 -0.308852 -0.073298
v 0.000001 -0.308852 -1.071553
v 0.000001 3.806144 -2.554805
v 0.000001 5.325054 -1.643873
v 3.148817 4.943937 -0.812114
v 0.000001 6.388290 -2.190432
v 2.409999 6.507658 -0.073296
v 3.408255 -0.308852 2.336702
v 3.408255 3.099403 -1.071553
v 3.915000 -2.155908 -4.139126
v 2.175000 0.793647 -5.554635
v 3.767211 -0.770964 -1.085067
v 1.883605 1.722225 -2.575193
v 2.175000 0.290957 0.468465
v 1.087500 1.682771 -0.569334
v 1.883606 -3.828837 0.594529
v 1.087501 -1.104208 1.652480
v -2.175001 0.793647 -5.554635
v -1.883606 1.722225 -2.575193
v -1.087500 1.682771 -0.569333
v 2.175001 -5.111554 -2.892292
v -3.915000 -2.155908 -4.139125
v -3.767211 -0.770965 -1.085067
v -2.175000 0.290956 0.468466
v -2.175000 -5.111555 -2.892291
v -1.883605 -3.828838 0.594529
v -1.087500 -1.104208 1.652480
v -3.148817 4.943937 5.212116
v -4.453099 4.943937 2.336702
v -3.408256 3.099402 5.471554
v -4.820000 3.099402 2.336701
v -3.148817 1.254868 5.212115
v -4.453099 1.254869 2.336701
v -2.410000 -0.308853 4.442921
v -3.408255 -0.308852 2.336702
v -0.000001 4.943937 6.789802
v -0.000001 3.099402 7.156703
v -0.000001 1.254868 6.789801
v -0.000001 -0.308853 5.744957
v 4.453099 1.254869 2.336702
v 3.148817 1.254869 -0.812115
v 4.819999 3.099402 2.336703
v 4.453099 4.943936 2.336703
v 3.408255 6.507658 2.336703
v 0.000001 1.254869 -2.116397
v -1.844534 -1.353696 2.336702
v 0.000000 -1.353697 4.181236
v 2.410000 -0.308853 4.442921
v 3.148816 1.254868 5.212115
v 3.408255 3.099402 5.471554
v 3.148816 4.943936 5.212116
v 2.409999 6.507657 4.473300
v 1.844534 7.552504 2.336703
v 0.000000 7.664174 0.420905
v -2.409999 6.507659 -0.073297
v -3.148816 4.943938 -0.812114
v -3.408254 3.099403 -1.071553
v -3.148816 1.254869 -0.812115
v -2.410000 -0.308852 -0.073298
vt 0.613168 0.013118
vt 0.497747 0.014265
vt 0.497501 0.177005
vt 0.382326 0.015411
vt 0.497747 0.014265
vt 0.820220 0.576548
vt 0.870095 0.580256
vt 0.749916 0.511612
vt 0.679611 0.576548
vt 0.629737 0.580256
vt 0.676424 0.064382
vt 0.626999 0.099513
vt 0.746094 0.031576
vt 0.865188 0.099513
vt 0.815764 0.064382
vt 0.175952 0.871955
vt 0.090970 0.875789
vt 0.165726 0.925129
vt 0.253906 0.925129
vt 0.253906 0.871955
vt 0.253906 0.942455
vt 0.342087 0.504559
vt 0.253906 0.504559
vt 0.253906 0.487233
vt 0.331861 0.557732
vt 0.416843 0.553898
vt 0.484333 0.714844
vt 0.466793 0.801947
vt 0.355759 0.799872
vt 0.416843 0.875789
vt 0.331861 0.871955
vt 0.253906 0.557732
vt 0.364150 0.714844
vt 0.966238 0.707717
vt 0.870095 0.722937
vt 0.958072 0.873966
vt 0.853994 0.874268
vt 0.870095 0.967716
vt 0.810005 0.959074
vt 0.849233 0.383564
vt 0.952372 0.390199
vt 0.805641 0.497644
vt 0.865188 0.482984
vt 0.629737 0.722937
vt 0.645838 0.874268
vt 0.689827 0.959074
vt 0.865188 0.203301
vt 0.960464 0.225662
vt 0.533594 0.707717
vt 0.541760 0.873966
vt 0.629737 0.967716
vt 0.531724 0.225662
vt 0.626999 0.203301
vt 0.539816 0.390199
vt 0.642955 0.383564
vt 0.626999 0.482984
vt 0.686547 0.497644
vt 0.144531 0.779297
vt 0.253906 0.799872
vt 0.149306 0.687500
vt 0.253906 0.714844
vt 0.152054 0.598566
vt 0.253906 0.629816
vt 0.175952 0.557732
vt 0.253906 0.557732
vt 0.041016 0.769531
vt 0.036458 0.687500
vt 0.041019 0.596491
vt 0.090970 0.553898
vt 0.253906 0.629816
vt 0.355759 0.629816
vt 0.253906 0.714844
vt 0.253906 0.799872
vt 0.253906 0.871955
vt 0.466793 0.627741
vt 0.253906 0.504559
vt 0.165726 0.504559
vt 0.175952 0.557732
vt 0.152054 0.598566
vt 0.149306 0.687500
vt 0.144531 0.779297
vt 0.175952 0.871955
vt 0.253906 0.925129
vt 0.342087 0.925129
vt 0.331861 0.871955
vt 0.355759 0.799872
vt 0.364150 0.714844
vt 0.355759 0.629816
vt 0.331861 0.557732
vn 0.0000 -0.9984 0.0560
vn 0.8597 -0.2131 0.4641
vn 0.0000 -0.4059 0.9139
vn 0.0000 0.6247 0.7808
vn -0.8597 -0.2131 0.4641
vn 0.4319 0.3721 -0.8216
vn 0.7718 -0.1994 -0.6037
vn 0.0000 -0.1886 -0.9820
vn -0.4371 0.3726 -0.8185
vn -0.7612 -0.1614 -0.6280
vn -0.3892 -0.7895 -0.4745
vn 0.4280 -0.7792 -0.4579
vn -0.5208 0.6924 0.4992
vn -0.0048 0.6809 0.7323
vn 0.0000 0.9158 0.4017
vn -0.3978 0.9172 0.0215
vn -0.7296 0.6836 0.0150
vn 0.0000 0.9995 0.0313
vn 0.0000 -0.9222 -0.3867
vn 0.3906 -0.9205 0.0115
vn 0.0000 -1.0000 0.0000
vn 0.5052 -0.6996 -0.5052
vn 0.0000 -0.6838 -0.7296
vn 0.0000 0.1585 -0.9873
vn 0.0000 0.2004 -0.9797
vn 0.6520 0.3827 -0.6545
vn 0.0000 0.2396 -0.9709
vn 0.5445 0.6757 -0.4968
vn 0.7292 -0.6840 0.0160
vn 0.7140 -0.0085 -0.7001
vn 0.9696 -0.1240 -0.2109
vn 0.5130 0.7160 -0.4734
vn 0.9405 0.1715 0.2934
vn 0.4436 0.8946 -0.0538
vn 0.7562 0.3877 0.5270
vn 0.3427 0.9267 0.1542
vn 0.4608 -0.6020 0.6521
vn 0.3928 -0.2128 0.8946
vn -0.5262 0.7142 -0.4615
vn -0.4634 0.8842 -0.0590
vn -0.3607 0.9207 0.1489
vn 0.5157 -0.8538 0.0713
vn -0.9779 -0.0844 -0.1911
vn -0.9407 0.1809 0.2870
vn -0.7763 0.3617 0.5162
vn -0.5080 -0.8566 0.0904
vn -0.4642 -0.5970 0.6542
vn -0.4191 -0.2196 0.8809
vn -0.6687 0.3669 0.6467
vn -0.9303 0.3665 0.0146
vn -0.7195 0.0004 0.6944
vn -0.9999 -0.0004 0.0149
vn -0.6716 -0.3689 0.6425
vn -0.9297 -0.3677 0.0166
vn -0.5257 -0.6956 0.4895
vn -0.7307 -0.6824 0.0195
vn -0.0031 0.3672 0.9301
vn 0.0000 0.0000 1.0000
vn 0.0040 -0.3681 0.9297
vn 0.0071 -0.6814 0.7318
vn 0.9303 -0.3665 0.0146
vn 0.6578 -0.3668 -0.6578
vn 0.9999 0.0004 0.0149
vn 0.9300 0.3672 0.0161
vn 0.7306 0.6825 0.0173
vn 0.0000 -0.3577 -0.9338
vn -0.3906 -0.9205 0.0115
vn 0.0000 -0.9150 0.4033
vn 0.5202 -0.6945 0.4970
vn 0.6668 -0.3702 0.6467
vn 0.7195 -0.0004 0.6944
vn 0.6722 0.3661 0.6434
vn 0.5246 0.6933 0.4941
vn 0.3978 0.9172 0.0215
vn 0.0000 0.9475 -0.3197
vn -0.5445 0.6757 -0.4968
vn -0.6520 0.3827 -0.6545
vn -0.7140 -0.0085 -0.7001
vn -0.6578 -0.3668 -0.6578
vn -0.5052 -0.6996 -0.5052
usemtl material_2.002
s 1
f 5/5/2 6/6/3 7/7/4
f 6/6/3 8/8/5 7/7/4
f 9/9/6 5/5/2 7/7/4
f 8/8/5 9/9/6 7/7/4
f 10/10/7 11/11/8 12/12/9
f 13/13/10 10/10/7 12/12/9
f 14/14/11 13/13/10 12/12/9
f 15/15/12 14/16/11 12/17/9
f 11/18/8 16/19/13 12/17/9
f 16/19/13 15/15/12 12/17/9
f 17/20/14 18/21/15 19/22/16
f 20/23/17 21/24/18 17/20/14
f 19/22/16 22/25/19 20/23/17
f 17/20/14 19/22/16 20/23/17
f 23/26/20 24/27/21 25/28/22
f 26/29/23 24/27/21 23/26/20
f 23/26/20 27/30/24 26/29/23
f 28/31/25 29/32/26 30/33/27
f 29/32/26 31/34/28 32/35/29
f 26/29/23 33/36/30 24/27/21
f 32/35/29 30/33/27 29/32/26
f 30/33/27 34/37/31 28/31/25
f 11/11/8 10/10/7 35/38/32
f 10/10/7 36/39/33 35/38/32
f 35/38/32 36/39/33 37/40/34
f 36/39/33 38/41/35 37/40/34
f 37/40/34 38/41/35 39/42/36
f 38/41/35 40/43/37 39/42/36
f 41/44/38 37/45/34 42/46/39
f 37/45/34 39/47/36 42/46/39
f 10/10/7 13/13/10 36/39/33
f 13/13/10 43/48/40 36/39/33
f 36/39/33 43/48/40 38/41/35
f 43/48/40 44/49/41 38/41/35
f 38/41/35 44/49/41 40/43/37
f 44/49/41 45/50/42 40/43/37
f 46/51/43 35/52/32 41/44/38
f 35/52/32 37/45/34 41/44/38
f 13/13/10 14/14/11 43/48/40
f 14/14/11 47/53/44 43/48/40
f 43/48/40 47/53/44 44/49/41
f 47/53/44 48/54/45 44/49/41
f 44/49/41 48/54/45 45/50/42
f 48/54/45 49/55/46 45/50/42
f 16/19/13 11/18/8 46/51/43
f 11/18/8 35/52/32 46/51/43
f 14/16/11 15/15/12 47/56/44
f 15/15/12 50/57/47 47/56/44
f 47/56/44 50/57/47 48/58/45
f 50/57/47 51/59/48 48/58/45
f 48/58/45 51/59/48 49/60/46
f 51/59/48 52/61/49 49/60/46
f 15/15/12 16/19/13 50/57/47
f 16/19/13 46/51/43 50/57/47
f 50/57/47 46/51/43 51/59/48
f 46/51/43 41/44/38 51/59/48
f 51/59/48 41/44/38 52/61/49
f 41/44/38 42/46/39 52/61/49
f 17/20/14 21/24/18 53/62/50
f 21/24/18 54/63/51 53/62/50
f 53/62/50 54/63/51 55/64/52
f 54/63/51 56/65/53 55/64/52
f 55/64/52 56/65/53 57/66/54
f 56/65/53 58/67/55 57/66/54
f 57/66/54 58/67/55 59/68/56
f 58/67/55 60/69/57 59/68/56
f 18/21/15 17/20/14 61/70/58
f 17/20/14 53/62/50 61/70/58
f 61/70/58 53/62/50 62/71/59
f 53/62/50 55/64/52 62/71/59
f 62/71/59 55/64/52 63/72/60
f 55/64/52 57/66/54 63/72/60
f 63/72/60 57/66/54 64/73/61
f 57/66/54 59/68/56 64/73/61
f 33/36/30 26/29/23 65/74/62
f 26/29/23 66/75/63 65/74/62
f 65/74/62 66/75/63 67/76/64
f 66/75/63 34/37/31 67/76/64
f 67/76/64 34/37/31 68/77/65
f 34/37/31 30/33/27 68/77/65
f 68/77/65 30/33/27 69/78/66
f 30/33/27 32/35/29 69/78/66
f 26/29/23 27/30/24 66/75/63
f 27/30/24 70/79/67 66/75/63
f 66/75/63 70/79/67 34/37/31
f 70/79/67 28/31/25 34/37/31
f 25/28/22 71/80/68 23/26/20
f 25/28/22 72/81/69 71/80/68
f 24/27/21 72/81/69 25/28/22
f 24/27/21 73/82/70 72/81/69
f 33/36/30 73/82/70 24/27/21
f 33/36/30 74/83/71 73/82/70
f 65/74/62 74/83/71 33/36/30
f 65/74/62 75/84/72 74/83/71
f 67/76/64 75/84/72 65/74/62
f 67/76/64 76/85/73 75/84/72
f 68/77/65 76/85/73 67/76/64
f 68/77/65 77/86/74 76/85/73
f 69/78/66 77/86/74 68/77/65
f 69/78/66 78/87/75 77/86/74
f 32/35/29 78/87/75 69/78/66
f 32/35/29 79/88/76 78/87/75
f 31/34/28 79/88/76 32/35/29
f 31/34/28 80/89/77 79/88/76
f 29/32/26 80/89/77 31/34/28
f 29/32/26 81/90/78 80/89/77
f 28/31/25 81/90/78 29/32/26
f 28/31/25 82/91/79 81/90/78
f 70/79/67 82/91/79 28/31/25
f 70/79/67 83/92/80 82/91/79
f 27/30/24 83/92/80 70/79/67
f 27/30/24 84/93/81 83/92/80
f 23/26/20 84/93/81 27/30/24
f 23/26/20 71/80/68 84/93/81
f 58/67/55 84/93/81 60/69/57
f 58/67/55 83/92/80 84/93/81
f 56/65/53 83/92/80 58/67/55
f 56/65/53 82/91/79 83/92/80
f 54/63/51 82/91/79 56/65/53
f 54/63/51 81/90/78 82/91/79
f 21/24/18 81/90/78 54/63/51
f 21/24/18 80/89/77 81/90/78
f 20/23/17 80/89/77 21/24/18
f 20/23/17 79/88/76 80/89/77
f 22/25/19 79/88/76 20/23/17
f 22/25/19 78/87/75 79/88/76
f 19/22/16 78/87/75 22/25/19
f 19/22/16 77/86/74 78/87/75
f 18/21/15 77/86/74 19/22/16
f 18/21/15 76/85/73 77/86/74
f 61/70/58 76/85/73 18/21/15
f 61/70/58 75/84/72 76/85/73
f 62/71/59 75/84/72 61/70/58
f 62/71/59 74/83/71 75/84/72
f 63/72/60 74/83/71 62/71/59
f 63/72/60 73/82/70 74/83/71
f 64/73/61 73/82/70 63/72/60
f 64/73/61 72/81/69 73/82/70
f 59/68/56 72/81/69 64/73/61
f 59/68/56 71/80/68 72/81/69
f 60/69/57 71/80/68 59/68/56
f 60/69/57 84/93/81 71/80/68
o face4
v -2.597519 2.112839 -2.262597
v -3.395206 1.761164 -0.613187
v -2.208793 0.698761 -1.488794
v -6.941700 3.732998 -6.354866
v -7.626813 2.833668 -7.881925
v -8.308778 3.240979 -8.360694
v -2.915954 1.269016 -4.703481
v -3.571373 0.188528 -5.775340
v -5.320191 1.256728 -6.924387
v -6.475731 3.892341 -1.274907
v -5.017306 2.934027 -0.540793
v -4.123878 3.387478 -2.909631
v -2.646106 -0.178484 -4.109187
v -4.461841 2.578726 -5.230444
v -7.894804 4.482442 -3.126149
v -6.278324 4.449119 -3.459076
v -8.485250 4.240804 -5.514265
v -8.561932 3.658056 -7.655457
v -2.208793 0.698761 -1.488794
v -3.395206 1.761164 -0.613187
v -2.646106 -0.178484 -4.109187
v -7.626813 2.833668 -7.881925
v -6.475731 3.892341 -1.274907
v -7.894804 4.482442 -3.126149
v -5.320191 1.256728 -6.924387
v -5.017306 2.934027 -0.540793
v -3.571373 0.188528 -5.775340
v -8.485250 4.240804 -5.514265
v -8.561932 3.658056 -7.655457
v -8.308778 3.240979 -8.360694
vt 0.115319 0.044984
vt 0.130228 0.437557
vt 0.034382 0.327561
vt 0.014414 0.185665
vt 0.034357 0.058440
vt 0.064201 0.016537
vt 0.398988 0.395834
vt 0.373043 0.478522
vt 0.476435 0.428144
vt 0.113189 0.145908
vt 0.115319 0.044984
vt 0.064201 0.016537
vt 0.417383 0.247046
vt 0.428418 0.170152
vt 0.296363 0.101879
vt 0.130228 0.437557
vt 0.243115 0.481176
vt 0.269739 0.359801
vt 0.490187 0.267915
vt 0.285713 0.217974
vt 0.034382 0.327561
vt 0.117449 0.321871
vt 0.014414 0.185665
vt 0.034357 0.058440
vt 0.476435 0.428144
vt 0.373043 0.478522
vt 0.490187 0.267915
vt 0.296363 0.101879
vt 0.243115 0.481176
vt 0.428418 0.170152
vn -0.6122 -0.7571 0.2280
vn 0.8287 0.5561 0.0632
vn 0.6238 0.6463 0.4395
vn 0.9433 0.3155 0.1027
vn 0.4013 0.8119 -0.4239
vn 0.6369 0.4897 -0.5954
vn 0.4822 0.7163 -0.5043
vn 0.8368 0.3246 -0.4407
vn 0.7353 0.1972 -0.6484
vn 0.6045 0.4339 -0.6680
vn 0.3092 0.9078 0.2833
vn 0.4668 0.8128 0.3484
vn 0.5579 0.8296 -0.0202
vn 0.9514 0.0668 -0.3005
vn 0.5981 0.6345 -0.4895
vn 0.0300 0.9985 0.0458
vn 0.2850 0.9578 -0.0374
vn 0.1337 0.9624 -0.2365
vn 0.2511 0.8967 -0.3645
vn -0.4684 -0.8113 0.3498
vn -0.5645 -0.7820 0.2641
vn -0.6598 -0.7081 0.2514
vn -0.6091 -0.7576 0.2347
vn -0.5864 -0.7761 0.2317
vn -0.6375 -0.7306 0.2443
usemtl material_0.002
s off
f 106/94/82 107/95/82 108/96/82
f 108/96/82 112/97/82 113/98/82
f 114/99/82 106/94/82 108/96/82
f 108/96/82 113/98/82 114/99/82
s 1
f 85/100/83 86/101/84 87/102/85
f 88/103/86 89/104/87 90/105/88
f 91/106/89 92/107/90 93/108/91
f 94/109/92 95/110/93 96/111/94
f 97/112/95 92/107/90 91/106/89
f 95/110/93 86/101/84 85/100/83
f 98/113/96 93/108/91 89/104/87
f 99/114/97 94/109/92 100/115/98
f 85/100/83 87/102/85 97/112/95
f 100/115/98 101/116/99 99/114/97
f 96/111/94 85/100/83 91/106/89
f 100/115/98 96/111/94 98/113/96
f 101/116/99 100/115/98 88/103/86
f 102/117/100 101/116/99 88/103/86
f 90/105/88 102/117/100 88/103/86
f 89/104/87 88/103/86 98/113/96
f 91/106/89 98/113/96 96/111/94
f 98/113/96 88/103/86 100/115/98
f 96/111/94 100/115/98 94/109/92
f 85/100/83 96/111/94 95/110/93
f 93/108/91 98/113/96 91/106/89
f 103/118/101 104/119/102 105/120/103
f 109/121/104 110/122/105 107/95/82
f 107/95/82 106/94/82 109/121/104
f 104/119/102 110/122/105 109/121/104
f 109/121/104 111/123/106 104/119/102
f 104/119/102 111/123/106 105/120/103
f 97/112/95 91/106/89 85/100/83
o face3
v 2.204033 0.696584 -1.488794
v 3.379762 1.770798 -0.613186
v 2.578599 2.114479 -2.262597
v 8.278293 3.299675 -8.360692
v 7.600434 2.885566 -7.881923
v 6.906363 3.778000 -6.354863
v 5.309696 1.285638 -6.924386
v 3.571646 0.200004 -5.775338
v 2.905456 1.273882 -4.703481
v 4.092136 3.404317 -2.909629
v 4.990054 2.959824 -0.540793
v 6.438823 3.932674 -1.274906
v 2.650096 -0.176243 -4.109187
v 4.438169 2.598987 -5.230443
v 6.235857 4.487450 -3.459074
v 7.851924 4.536936 -3.126148
v 8.444758 4.301215 -5.514263
v 8.527263 3.719263 -7.655455
v 2.650096 -0.176243 -4.109187
v 3.379762 1.770798 -0.613186
v 2.204033 0.696584 -1.488794
v 7.851924 4.536936 -3.126148
v 6.438823 3.932674 -1.274906
v 7.600434 2.885566 -7.881923
v 4.990054 2.959824 -0.540793
v 5.309696 1.285638 -6.924386
v 3.571646 0.200004 -5.775338
v 8.527263 3.719263 -7.655455
v 8.444758 4.301215 -5.514263
v 8.278293 3.299675 -8.360692
vt 0.034382 0.327561
vt 0.130228 0.437557
vt 0.115319 0.044984
vt 0.034357 0.058440
vt 0.014414 0.185665
vt 0.064201 0.016537
vt 0.476435 0.428144
vt 0.373043 0.478522
vt 0.398988 0.395834
vt 0.064201 0.016537
vt 0.115319 0.044984
vt 0.113189 0.145908
vt 0.296363 0.101879
vt 0.428418 0.170152
vt 0.417383 0.247046
vt 0.269739 0.359801
vt 0.243115 0.481176
vt 0.130228 0.437557
vt 0.490187 0.267915
vt 0.285713 0.217974
vt 0.117449 0.321871
vt 0.034382 0.327561
vt 0.014414 0.185665
vt 0.034357 0.058440
vt 0.490187 0.267915
vt 0.373043 0.478522
vt 0.476435 0.428144
vt 0.243115 0.481176
vt 0.296363 0.101879
vt 0.428418 0.170152
vn 0.6198 -0.7509 0.2280
vn -0.9464 0.3060 0.1027
vn -0.6302 0.6401 0.4395
vn -0.8342 0.5478 0.0632
vn -0.4893 0.7114 -0.5043
vn -0.6417 0.4833 -0.5954
vn -0.4094 0.8079 -0.4239
vn -0.6088 0.4279 -0.6680
vn -0.7372 0.1899 -0.6484
vn -0.8401 0.3162 -0.4407
vn -0.5662 0.8240 -0.0202
vn -0.4749 0.8081 0.3484
vn -0.3182 0.9047 0.2833
vn -0.9521 0.0573 -0.3005
vn -0.6044 0.6285 -0.4895
vn -0.2946 0.9549 -0.0374
vn -0.0400 0.9981 0.0458
vn -0.1433 0.9610 -0.2365
vn -0.2600 0.8941 -0.3645
vn 0.6669 -0.7014 0.2514
vn 0.5723 -0.7764 0.2641
vn 0.4765 -0.8066 0.3498
vn 0.5942 -0.7702 0.2317
vn 0.6167 -0.7514 0.2347
vn 0.6448 -0.7242 0.2443
usemtl material_0.002
s off
f 136/124/107 137/125/107 138/126/107
f 142/127/107 143/128/107 136/124/107
f 136/124/107 138/126/107 144/129/107
f 144/129/107 142/127/107 136/124/107
s 1
f 115/130/108 116/131/109 117/132/110
f 118/133/111 119/134/112 120/135/113
f 121/136/114 122/137/115 123/138/116
f 124/139/117 125/140/118 126/141/119
f 123/138/116 122/137/115 127/142/120
f 117/132/110 116/131/109 125/140/118
f 119/134/112 121/136/114 128/143/121
f 129/144/122 126/141/119 130/145/123
f 127/142/120 115/130/108 117/132/110
f 130/145/123 131/146/124 129/144/122
f 123/138/116 117/132/110 124/139/117
f 128/143/121 124/139/117 129/144/122
f 120/135/113 129/144/122 131/146/124
f 120/135/113 131/146/124 132/147/125
f 120/135/113 132/147/125 118/133/111
f 128/143/121 120/135/113 119/134/112
f 124/139/117 128/143/121 123/138/116
f 129/144/122 120/135/113 128/143/121
f 126/141/119 129/144/122 124/139/117
f 125/140/118 124/139/117 117/132/110
f 123/138/116 128/143/121 121/136/114
f 133/148/126 134/149/127 135/150/128
f 137/125/107 139/151/129 140/152/130
f 140/152/130 138/126/107 137/125/107
f 140/152/130 139/151/129 134/149/127
f 134/149/127 141/153/131 140/152/130
f 133/148/126 141/153/131 134/149/127
f 117/132/110 123/138/116 127/142/120
